<svg width="1920" height="1348" viewBox="0 0 1920 1348" fill="none" xmlns="http://www.w3.org/2000/svg">
<path d="M1920 1061.57V1293.92H1644.8L1644.8 1165.73H1372.8V1348H1097.6V1346L822.4 1346V1215.8H547.2V1059.57H275.2V1303.93H0L0 0L275.2 0L547.2 0L822.4 0L1097.6 0L1372.8 0L1644.8 0L1920 0L1920 1061.57Z" fill="#F9FDEC"/>
<path d="M1920 834.598V935.177H1644.8V960.857L1372.8 960.857V941.597H1097.6V858.138H822.4L822.4 1070H547.2V1117.08H275.2V1040.04H0L0 0L275.2 0L547.2 0L822.4 0L1097.6 0L1372.8 0L1644.8 0L1920 0V834.598Z" fill="#F2FBDA"/>
<path d="M1920 513.107V627.585H1644.8V637.806L1372.8 637.806V549.903H1097.6V601.009H822.4V695.045H547.2V464.045H275.2V535.593H0V0L275.2 0L547.2 0L822.4 0L1097.6 0L1372.8 0L1644.8 0L1920 0V513.107Z" fill="#EBF9C8"/>
<path d="M1920 227.405V206.002L1644.8 206.002V387.927H1372.8V577.877H1097.6V567.175H822.4V561.825H547.2V353.147H275.2V326.393L0 326.393V0L275.2 0L547.2 0L822.4 0L1097.6 0L1372.8 0L1644.8 0L1920 0V227.405Z" fill="#E4F7B5"/>
</svg>
