<svg width="429" height="115" viewBox="0 0 429 115" fill="none" xmlns="http://www.w3.org/2000/svg">
<path d="M132.283 36.252H135.452V46.2207C135.452 47.5241 135.338 48.5267 135.108 49.2285C134.8 50.1452 134.242 50.8828 133.433 51.4414C132.623 51.9928 131.556 52.2686 130.231 52.2686C128.677 52.2686 127.481 51.8353 126.644 50.9688C125.806 50.0951 125.383 48.8167 125.376 47.1338L128.373 46.79C128.409 47.6924 128.541 48.3298 128.771 48.7021C129.114 49.2679 129.637 49.5508 130.339 49.5508C131.048 49.5508 131.549 49.3503 131.843 48.9492C132.136 48.541 132.283 47.6995 132.283 46.4248V36.252ZM153.048 52H149.589L148.214 48.4229H141.919L140.619 52H137.246L143.38 36.252H146.742L153.048 52ZM147.193 45.7695L145.023 39.9258L142.896 45.7695H147.193ZM154.777 52V36.252H157.871L164.316 46.7686V36.252H167.271V52H164.08L157.731 41.7305V52H154.777ZM170.644 52V36.252H175.746C177.68 36.252 178.94 36.3307 179.527 36.4883C180.43 36.7246 181.185 37.2402 181.794 38.0352C182.403 38.8229 182.707 39.8434 182.707 41.0967C182.707 42.0635 182.532 42.8763 182.181 43.5352C181.83 44.194 181.382 44.7132 180.838 45.0928C180.301 45.4652 179.753 45.7122 179.194 45.834C178.435 45.9844 177.336 46.0596 175.896 46.0596H173.823V52H170.644ZM173.823 38.916V43.3848H175.563C176.817 43.3848 177.655 43.3024 178.077 43.1377C178.5 42.973 178.829 42.7152 179.065 42.3643C179.309 42.0133 179.431 41.6051 179.431 41.1396C179.431 40.5667 179.262 40.0941 178.926 39.7217C178.589 39.3493 178.163 39.1165 177.647 39.0234C177.268 38.9518 176.505 38.916 175.359 38.916H173.823ZM185.328 52V36.252H192.021C193.703 36.252 194.924 36.3952 195.684 36.6816C196.45 36.9609 197.062 37.4622 197.521 38.1855C197.979 38.9089 198.208 39.736 198.208 40.667C198.208 41.8486 197.861 42.8262 197.166 43.5996C196.471 44.3659 195.433 44.8493 194.051 45.0498C194.738 45.4508 195.304 45.8913 195.748 46.3711C196.199 46.8509 196.804 47.7031 197.563 48.9277L199.486 52H195.684L193.385 48.5732C192.568 47.3486 192.01 46.5788 191.709 46.2637C191.408 45.9414 191.09 45.723 190.753 45.6084C190.416 45.4867 189.883 45.4258 189.152 45.4258H188.508V52H185.328ZM188.508 42.9121H190.86C192.386 42.9121 193.338 42.8477 193.718 42.7188C194.097 42.5898 194.395 42.3678 194.609 42.0527C194.824 41.7376 194.932 41.3438 194.932 40.8711C194.932 40.3411 194.788 39.915 194.502 39.5928C194.223 39.2633 193.825 39.0557 193.31 38.9697C193.052 38.9339 192.278 38.916 190.989 38.916H188.508V42.9121ZM215.417 52H211.958L210.583 48.4229H204.288L202.988 52H199.615L205.749 36.252H209.111L215.417 52ZM209.562 45.7695L207.393 39.9258L205.266 45.7695H209.562ZM222.421 52V36.252H227.523C229.457 36.252 230.717 36.3307 231.305 36.4883C232.207 36.7246 232.963 37.2402 233.571 38.0352C234.18 38.8229 234.484 39.8434 234.484 41.0967C234.484 42.0635 234.309 42.8763 233.958 43.5352C233.607 44.194 233.16 44.7132 232.615 45.0928C232.078 45.4652 231.53 45.7122 230.972 45.834C230.213 45.9844 229.113 46.0596 227.674 46.0596H225.601V52H222.421ZM225.601 38.916V43.3848H227.341C228.594 43.3848 229.432 43.3024 229.854 43.1377C230.277 42.973 230.606 42.7152 230.843 42.3643C231.086 42.0133 231.208 41.6051 231.208 41.1396C231.208 40.5667 231.04 40.0941 230.703 39.7217C230.367 39.3493 229.94 39.1165 229.425 39.0234C229.045 38.9518 228.283 38.916 227.137 38.916H225.601ZM237.105 52V36.252H240.285V42.4502H246.516V36.252H249.695V52H246.516V45.1143H240.285V52H237.105ZM267.194 52H263.735L262.36 48.4229H256.065L254.766 52H251.393L257.526 36.252H260.889L267.194 52ZM261.34 45.7695L259.17 39.9258L257.043 45.7695H261.34ZM268.902 52V36.252H275.595C277.278 36.252 278.499 36.3952 279.258 36.6816C280.024 36.9609 280.636 37.4622 281.095 38.1855C281.553 38.9089 281.782 39.736 281.782 40.667C281.782 41.8486 281.435 42.8262 280.74 43.5996C280.046 44.3659 279.007 44.8493 277.625 45.0498C278.312 45.4508 278.878 45.8913 279.322 46.3711C279.773 46.8509 280.379 47.7031 281.138 48.9277L283.061 52H279.258L276.959 48.5732C276.143 47.3486 275.584 46.5788 275.283 46.2637C274.982 45.9414 274.664 45.723 274.327 45.6084C273.991 45.4867 273.457 45.4258 272.727 45.4258H272.082V52H268.902ZM272.082 42.9121H274.435C275.96 42.9121 276.912 42.8477 277.292 42.7188C277.672 42.5898 277.969 42.3678 278.184 42.0527C278.398 41.7376 278.506 41.3438 278.506 40.8711C278.506 40.3411 278.363 39.915 278.076 39.5928C277.797 39.2633 277.399 39.0557 276.884 38.9697C276.626 38.9339 275.853 38.916 274.563 38.916H272.082V42.9121ZM284.747 52V36.252H289.506L292.363 46.9941L295.188 36.252H299.958V52H297.004V39.6035L293.878 52H290.816L287.701 39.6035V52H284.747ZM317.317 52H313.858L312.483 48.4229H306.188L304.889 52H301.516L307.649 36.252H311.012L317.317 52ZM311.463 45.7695L309.293 39.9258L307.166 45.7695H311.463ZM329.091 46.21L332.174 47.1875C331.701 48.9062 330.913 50.1846 329.811 51.0225C328.715 51.8532 327.322 52.2686 325.632 52.2686C323.541 52.2686 321.822 51.556 320.476 50.1309C319.129 48.6986 318.456 46.7435 318.456 44.2656C318.456 41.6445 319.133 39.6107 320.486 38.1641C321.84 36.7103 323.619 35.9834 325.825 35.9834C327.752 35.9834 329.316 36.5527 330.52 37.6914C331.236 38.3646 331.773 39.3314 332.131 40.5918L328.983 41.3438C328.797 40.5273 328.407 39.8828 327.812 39.4102C327.225 38.9375 326.509 38.7012 325.664 38.7012C324.497 38.7012 323.548 39.1201 322.817 39.958C322.094 40.7959 321.732 42.153 321.732 44.0293C321.732 46.0202 322.09 47.4382 322.807 48.2832C323.523 49.1283 324.454 49.5508 325.6 49.5508C326.445 49.5508 327.172 49.2822 327.78 48.7451C328.389 48.208 328.826 47.363 329.091 46.21ZM334.913 52V36.252H346.59V38.916H338.093V42.4072H345.999V45.0605H338.093V49.3467H346.891V52H334.913ZM349.565 36.252H352.745V44.7812C352.745 46.1348 352.785 47.012 352.863 47.4131C352.999 48.0576 353.322 48.5768 353.83 48.9707C354.346 49.3574 355.048 49.5508 355.936 49.5508C356.838 49.5508 357.518 49.3682 357.977 49.0029C358.435 48.6305 358.711 48.1758 358.804 47.6387C358.897 47.1016 358.943 46.21 358.943 44.9639V36.252H362.123V44.5234C362.123 46.4141 362.037 47.7497 361.865 48.5303C361.693 49.3109 361.375 49.9697 360.909 50.5068C360.451 51.0439 359.835 51.4736 359.062 51.7959C358.288 52.111 357.278 52.2686 356.032 52.2686C354.528 52.2686 353.386 52.0967 352.605 51.7529C351.832 51.402 351.22 50.9508 350.769 50.3994C350.317 49.8408 350.02 49.2572 349.877 48.6484C349.669 47.7461 349.565 46.4141 349.565 44.6523V36.252ZM369.03 52V38.916H364.357V36.252H376.872V38.916H372.21V52H369.03ZM378.838 52V36.252H382.018V52H378.838ZM395.134 46.21L398.217 47.1875C397.744 48.9062 396.956 50.1846 395.854 51.0225C394.758 51.8532 393.365 52.2686 391.675 52.2686C389.584 52.2686 387.865 51.556 386.519 50.1309C385.172 48.6986 384.499 46.7435 384.499 44.2656C384.499 41.6445 385.176 39.6107 386.529 38.1641C387.883 36.7103 389.662 35.9834 391.868 35.9834C393.795 35.9834 395.359 36.5527 396.562 37.6914C397.279 38.3646 397.816 39.3314 398.174 40.5918L395.026 41.3438C394.84 40.5273 394.45 39.8828 393.855 39.4102C393.268 38.9375 392.552 38.7012 391.707 38.7012C390.54 38.7012 389.591 39.1201 388.86 39.958C388.137 40.7959 387.775 42.153 387.775 44.0293C387.775 46.0202 388.133 47.4382 388.85 48.2832C389.566 49.1283 390.497 49.5508 391.643 49.5508C392.488 49.5508 393.215 49.2822 393.823 48.7451C394.432 48.208 394.869 47.363 395.134 46.21ZM415.157 52H411.698L410.323 48.4229H404.028L402.729 52H399.355L405.489 36.252H408.852L415.157 52ZM409.303 45.7695L407.133 39.9258L405.006 45.7695H409.303ZM416.94 52V36.3809H420.12V49.3467H428.026V52H416.94Z" fill="#20026F"/>
<path d="M126.389 79V66.1152H131.249C132.104 66.1152 132.758 66.1562 133.209 66.2383C133.842 66.3438 134.372 66.5459 134.8 66.8447C135.228 67.1377 135.57 67.5508 135.828 68.084C136.092 68.6172 136.224 69.2031 136.224 69.8418C136.224 70.9375 135.875 71.8662 135.178 72.6279C134.48 73.3838 133.221 73.7617 131.398 73.7617H128.094V79H126.389ZM128.094 72.2412H131.425C132.526 72.2412 133.309 72.0361 133.771 71.626C134.234 71.2158 134.466 70.6387 134.466 69.8945C134.466 69.3555 134.328 68.8955 134.053 68.5146C133.783 68.1279 133.426 67.873 132.98 67.75C132.693 67.6738 132.163 67.6357 131.39 67.6357H128.094V72.2412ZM138.175 79V69.666H139.599V71.0811C139.962 70.4189 140.296 69.9824 140.601 69.7715C140.911 69.5605 141.251 69.4551 141.62 69.4551C142.153 69.4551 142.695 69.625 143.246 69.9648L142.701 71.4326C142.314 71.2041 141.928 71.0898 141.541 71.0898C141.195 71.0898 140.885 71.1953 140.609 71.4062C140.334 71.6113 140.138 71.8984 140.021 72.2676C139.845 72.8301 139.757 73.4453 139.757 74.1133V79H138.175ZM144.195 67.9346V66.1152H145.777V67.9346H144.195ZM144.195 79V69.666H145.777V79H144.195ZM150.787 79L147.236 69.666H148.906L150.91 75.2559C151.127 75.8594 151.326 76.4863 151.508 77.1367C151.648 76.6445 151.845 76.0527 152.097 75.3613L154.171 69.666H155.797L152.264 79H150.787ZM163.285 77.8486C162.699 78.3467 162.134 78.6982 161.589 78.9033C161.05 79.1084 160.47 79.2109 159.849 79.2109C158.823 79.2109 158.035 78.9619 157.484 78.4639C156.934 77.96 156.658 77.3184 156.658 76.5391C156.658 76.082 156.761 75.666 156.966 75.291C157.177 74.9102 157.449 74.6055 157.783 74.377C158.123 74.1484 158.504 73.9756 158.926 73.8584C159.236 73.7764 159.705 73.6973 160.332 73.6211C161.609 73.4688 162.55 73.2871 163.153 73.0762C163.159 72.8594 163.162 72.7217 163.162 72.6631C163.162 72.0186 163.013 71.5645 162.714 71.3008C162.31 70.9434 161.709 70.7646 160.912 70.7646C160.168 70.7646 159.617 70.8965 159.26 71.1602C158.908 71.418 158.647 71.8779 158.478 72.54L156.931 72.3291C157.071 71.667 157.303 71.1338 157.625 70.7295C157.947 70.3193 158.413 70.0059 159.022 69.7891C159.632 69.5664 160.338 69.4551 161.141 69.4551C161.938 69.4551 162.585 69.5488 163.083 69.7363C163.581 69.9238 163.947 70.1611 164.182 70.4482C164.416 70.7295 164.58 71.0869 164.674 71.5205C164.727 71.79 164.753 72.2764 164.753 72.9795V75.0889C164.753 76.5596 164.785 77.4912 164.85 77.8838C164.92 78.2705 165.055 78.6426 165.254 79H163.602C163.438 78.6719 163.332 78.2881 163.285 77.8486ZM163.153 74.3154C162.579 74.5498 161.718 74.749 160.569 74.9131C159.919 75.0068 159.459 75.1123 159.189 75.2295C158.92 75.3467 158.712 75.5195 158.565 75.748C158.419 75.9707 158.346 76.2197 158.346 76.4951C158.346 76.917 158.504 77.2686 158.82 77.5498C159.143 77.8311 159.611 77.9717 160.227 77.9717C160.836 77.9717 161.378 77.8398 161.853 77.5762C162.327 77.3066 162.676 76.9404 162.898 76.4775C163.068 76.1201 163.153 75.5928 163.153 74.8955V74.3154ZM170.668 77.585L170.896 78.9824C170.451 79.0762 170.053 79.123 169.701 79.123C169.127 79.123 168.682 79.0322 168.365 78.8506C168.049 78.6689 167.826 78.4316 167.697 78.1387C167.568 77.8398 167.504 77.2158 167.504 76.2666V70.8965H166.344V69.666H167.504V67.3545L169.077 66.4053V69.666H170.668V70.8965H169.077V76.3545C169.077 76.8057 169.104 77.0957 169.156 77.2246C169.215 77.3535 169.306 77.4561 169.429 77.5322C169.558 77.6084 169.739 77.6465 169.974 77.6465C170.149 77.6465 170.381 77.626 170.668 77.585ZM178.613 75.9941L180.248 76.1963C179.99 77.1514 179.513 77.8926 178.815 78.4199C178.118 78.9473 177.228 79.2109 176.144 79.2109C174.778 79.2109 173.694 78.792 172.892 77.9541C172.095 77.1104 171.696 75.9297 171.696 74.4121C171.696 72.8418 172.101 71.623 172.909 70.7559C173.718 69.8887 174.767 69.4551 176.056 69.4551C177.304 69.4551 178.323 69.8799 179.114 70.7295C179.905 71.5791 180.301 72.7744 180.301 74.3154C180.301 74.4092 180.298 74.5498 180.292 74.7373H173.331C173.39 75.7627 173.68 76.5479 174.201 77.0928C174.723 77.6377 175.373 77.9102 176.152 77.9102C176.732 77.9102 177.228 77.7578 177.638 77.4531C178.048 77.1484 178.373 76.6621 178.613 75.9941ZM173.419 73.4365H178.631C178.561 72.6514 178.361 72.0625 178.033 71.6699C177.529 71.0605 176.876 70.7559 176.073 70.7559C175.347 70.7559 174.734 70.999 174.236 71.4854C173.744 71.9717 173.472 72.6221 173.419 73.4365ZM187.385 79V66.1152H189.09V77.4795H195.436V79H187.385ZM197.281 67.9346V66.1152H198.863V67.9346H197.281ZM197.281 79V69.666H198.863V79H197.281ZM201.28 79V69.666H202.695V70.9756C202.988 70.5186 203.378 70.1523 203.864 69.877C204.351 69.5957 204.904 69.4551 205.525 69.4551C206.217 69.4551 206.782 69.5986 207.222 69.8857C207.667 70.1729 207.98 70.5742 208.162 71.0898C208.9 70 209.861 69.4551 211.045 69.4551C211.971 69.4551 212.683 69.7129 213.181 70.2285C213.679 70.7383 213.928 71.5264 213.928 72.5928V79H212.354V73.1201C212.354 72.4873 212.302 72.0332 212.196 71.7578C212.097 71.4766 211.912 71.251 211.643 71.0811C211.373 70.9111 211.057 70.8262 210.693 70.8262C210.037 70.8262 209.492 71.0459 209.059 71.4854C208.625 71.9189 208.408 72.6162 208.408 73.5771V79H206.826V72.9355C206.826 72.2324 206.697 71.7051 206.439 71.3535C206.182 71.002 205.76 70.8262 205.174 70.8262C204.729 70.8262 204.315 70.9434 203.935 71.1777C203.56 71.4121 203.287 71.7549 203.117 72.2061C202.947 72.6572 202.862 73.3076 202.862 74.1572V79H201.28ZM216.283 67.9346V66.1152H217.865V67.9346H216.283ZM216.283 79V69.666H217.865V79H216.283ZM223.736 77.585L223.965 78.9824C223.52 79.0762 223.121 79.123 222.77 79.123C222.195 79.123 221.75 79.0322 221.434 78.8506C221.117 78.6689 220.895 78.4316 220.766 78.1387C220.637 77.8398 220.572 77.2158 220.572 76.2666V70.8965H219.412V69.666H220.572V67.3545L222.146 66.4053V69.666H223.736V70.8965H222.146V76.3545C222.146 76.8057 222.172 77.0957 222.225 77.2246C222.283 77.3535 222.374 77.4561 222.497 77.5322C222.626 77.6084 222.808 77.6465 223.042 77.6465C223.218 77.6465 223.449 77.626 223.736 77.585ZM231.682 75.9941L233.316 76.1963C233.059 77.1514 232.581 77.8926 231.884 78.4199C231.187 78.9473 230.296 79.2109 229.212 79.2109C227.847 79.2109 226.763 78.792 225.96 77.9541C225.163 77.1104 224.765 75.9297 224.765 74.4121C224.765 72.8418 225.169 71.623 225.978 70.7559C226.786 69.8887 227.835 69.4551 229.124 69.4551C230.372 69.4551 231.392 69.8799 232.183 70.7295C232.974 71.5791 233.369 72.7744 233.369 74.3154C233.369 74.4092 233.366 74.5498 233.36 74.7373H226.399C226.458 75.7627 226.748 76.5479 227.27 77.0928C227.791 77.6377 228.441 77.9102 229.221 77.9102C229.801 77.9102 230.296 77.7578 230.706 77.4531C231.116 77.1484 231.441 76.6621 231.682 75.9941ZM226.487 73.4365H231.699C231.629 72.6514 231.43 72.0625 231.102 71.6699C230.598 71.0605 229.944 70.7559 229.142 70.7559C228.415 70.7559 227.803 70.999 227.305 71.4854C226.812 71.9717 226.54 72.6221 226.487 73.4365ZM241.367 79V77.8223C240.775 78.748 239.905 79.2109 238.757 79.2109C238.013 79.2109 237.327 79.0059 236.7 78.5957C236.079 78.1855 235.596 77.6143 235.25 76.8818C234.91 76.1436 234.74 75.2969 234.74 74.3418C234.74 73.4102 234.896 72.5664 235.206 71.8105C235.517 71.0488 235.982 70.4658 236.604 70.0615C237.225 69.6572 237.919 69.4551 238.687 69.4551C239.249 69.4551 239.75 69.5752 240.189 69.8154C240.629 70.0498 240.986 70.3574 241.262 70.7383V66.1152H242.835V79H241.367ZM236.366 74.3418C236.366 75.5371 236.618 76.4307 237.122 77.0225C237.626 77.6143 238.221 77.9102 238.906 77.9102C239.598 77.9102 240.184 77.6289 240.664 77.0664C241.15 76.498 241.394 75.6338 241.394 74.4736C241.394 73.1963 241.147 72.2588 240.655 71.6611C240.163 71.0635 239.557 70.7646 238.836 70.7646C238.133 70.7646 237.544 71.0518 237.069 71.626C236.601 72.2002 236.366 73.1055 236.366 74.3418Z" fill="#20026F"/>
<path fill-rule="evenodd" clip-rule="evenodd" d="M57.9469 1C75.1614 1 90.457 9.22155 100.128 21.9487C91.2774 12.4446 78.5192 6.47717 64.3373 6.47717C37.6205 6.47717 15.9544 27.6527 15.9544 53.7646C15.9544 78.4114 35.2583 98.6561 59.8915 100.851C59.6543 102.893 59.2841 104.909 58.7276 106.888C58.4679 106.892 58.2078 106.894 57.9469 106.894C28.71 106.894 5 83.1842 5 53.9469C5 24.7096 28.71 1 57.9469 1ZM64.033 101.048C64.1348 101.049 64.2355 101.052 64.3373 101.052C79.3002 101.052 92.6771 94.4087 101.553 83.9776C92.67 96.85 78.2374 105.598 61.7134 106.761C62.573 104.907 63.3432 102.985 64.033 101.048Z" fill="#006FB8"/>
<path fill-rule="evenodd" clip-rule="evenodd" d="M65.8 99.4053C65.3273 99.4053 64.8561 99.3978 64.3872 99.3836C65.0724 97.7634 65.4864 96.1047 65.7292 94.4214C85.8587 91.8589 101.41 75.0321 101.41 54.6605C101.41 51.6339 101.066 48.6856 100.415 45.8506L104.154 31.159C108.306 37.9618 110.699 45.9547 110.699 54.5059C110.699 79.2994 90.593 99.4053 65.8 99.4053ZM59.7715 99.0041C47.663 97.3779 37.0829 90.9225 30.0301 81.641C37.5005 89.6635 48.2543 94.7133 60.2143 94.7597C60.2839 96.1744 60.1364 97.589 59.7715 99.0041ZM90.3026 27.2301C82.8172 19.4333 72.181 14.5609 60.3808 14.5609C47.6918 14.5609 36.3486 20.1942 28.822 29.0396C36.9216 17.3019 50.4628 9.6062 65.8 9.6062C78.9336 9.6062 90.7513 15.2495 98.9624 24.2413L90.3026 27.2301Z" fill="#81C214"/>
<path fill-rule="evenodd" clip-rule="evenodd" d="M58.572 111.187C73.5572 83.2815 65.5567 50.7481 31.374 36.3921C24.5145 62.3394 39.2494 77.9371 53.2586 86.5385C42.6478 72.5962 35.2562 63.0682 37.1544 48.5744C58.5165 64.5406 66.1458 85.4117 58.572 111.187Z" fill="#81C214"/>
<path fill-rule="evenodd" clip-rule="evenodd" d="M60.4993 58.1348C66.2321 41.8941 80.3522 29.0531 102.542 24.6938C104.032 51.8481 86.2145 64.3066 70.5498 69.9712C83.936 58.3099 93.2227 50.3698 94.3095 35.5984C80.4282 42.1029 70.6115 51.0805 65.1205 62.5835L60.4993 58.1348Z" fill="#006FB8"/>
<path fill-rule="evenodd" clip-rule="evenodd" d="M56.6402 21.0867C62.239 21.0867 66.7798 25.6271 66.7798 31.2263C66.7798 36.8255 62.239 41.3659 56.6402 41.3659C51.041 41.3659 46.5006 36.8255 46.5006 31.2263C46.5006 25.6271 51.041 21.0867 56.6402 21.0867Z" fill="#81C214"/>
</svg>
