<svg width="26" height="26" viewBox="0 0 26 26" fill="none" xmlns="http://www.w3.org/2000/svg">
<path d="M16.1308 25.6252C8.14985 29.2728 -4.23806 5.1935 3.56302 1.12558L5.8456 0L9.6286 7.38508L7.3731 8.49658C5.00169 9.76842 9.9406 19.4166 12.3662 18.2401C12.4648 18.1957 14.5946 17.1492 14.6022 17.1448L18.4166 24.5061C18.4079 24.5104 16.2619 25.5656 16.1308 25.6252ZM14.4646 11.0988L17.6247 12.0413C17.8663 11.232 17.798 10.3307 17.3647 9.53117C16.9324 8.73058 16.2142 8.18025 15.406 7.93975L14.4646 11.0988ZM16.4189 4.53592C18.0992 5.03642 19.5888 6.17825 20.4879 7.84117C21.3882 9.50517 21.5279 11.3761 21.0274 13.0553L19.0829 12.4757C19.4349 11.2937 19.3353 9.9775 18.7015 8.80642C18.0699 7.63533 17.0213 6.83258 15.8383 6.48158L16.4189 4.53592ZM17.4481 1.08333C20.0102 1.84708 22.283 3.588 23.6545 6.12733C25.0293 8.66558 25.2427 11.5202 24.4789 14.0833L22.4856 13.4897C23.0966 11.4368 22.9254 9.14983 21.8269 7.1175C20.7263 5.08408 18.9063 3.68875 16.8534 3.07775L17.4481 1.08333Z" fill="#20026F"/>
</svg>
