<svg width="32" height="32" viewBox="0 0 32 32" fill="none" xmlns="http://www.w3.org/2000/svg">
<path d="M29.3333 6.66667V25.3333H2.66667V6.66667H29.3333ZM32 4H0V28H32V4ZM18.6667 22.1293V22.6667H5.33333V22.1107C5.328 20.628 5.392 19.7813 7.09867 19.3867C8.96933 18.9547 10.8147 18.5693 9.928 16.932C7.29733 12.0827 9.17733 9.33333 12 9.33333C14.7693 9.33333 16.6947 11.98 14.0747 16.932C13.212 18.5587 14.992 18.9453 16.9027 19.3867C18.6147 19.7827 18.6733 20.6347 18.6667 22.1293ZM26.6667 9.33333H21.3333V12H26.6667V9.33333ZM26.6667 14.6667H21.3333V17.3333H26.6667V14.6667ZM26.6667 20H21.3333V22.6667H26.6667V20Z" fill="#81C214"/>
</svg>
