<svg width="48" height="48" viewBox="0 0 48 48" fill="none" xmlns="http://www.w3.org/2000/svg">
<g filter="url(#filter0_d_102_186)">
<path d="M22 2C18.0444 2 14.1776 3.17298 10.8886 5.37061C7.59962 7.56823 5.03617 10.6918 3.52242 14.3463C2.00867 18.0009 1.6126 22.0222 2.3843 25.9018C3.15601 29.7814 5.06082 33.3451 7.85787 36.1421C10.6549 38.9392 14.2186 40.844 18.0982 41.6157C21.9778 42.3874 25.9991 41.9913 29.6537 40.4776C33.3082 38.9638 36.4318 36.4004 38.6294 33.1114C40.827 29.8224 42 25.9556 42 22C42 16.6957 39.8929 11.6086 36.1421 7.85786C32.3914 4.10714 27.3043 2 22 2V2ZM27.28 23.288H24.4V33.752H18.656V23.24H14.8V18.44H18.624V14.648C18.624 13.8914 18.7737 13.1422 19.0644 12.4436C19.3552 11.7451 19.7813 11.111 20.3182 10.5778C20.855 10.0447 21.4921 9.62299 22.1926 9.33709C22.8932 9.05119 23.6434 8.90672 24.4 8.912H28.256V13.712H26.336C25.288 13.712 24.432 13.616 24.432 14.672V18.488H29.232L27.28 23.288Z" fill="#20026F"/>
</g>
<defs>
<filter id="filter0_d_102_186" x="0" y="0" width="48" height="48" filterUnits="userSpaceOnUse" color-interpolation-filters="sRGB">
<feFlood flood-opacity="0" result="BackgroundImageFix"/>
<feColorMatrix in="SourceAlpha" type="matrix" values="0 0 0 0 0 0 0 0 0 0 0 0 0 0 0 0 0 0 127 0" result="hardAlpha"/>
<feOffset dx="2" dy="2"/>
<feGaussianBlur stdDeviation="2"/>
<feComposite in2="hardAlpha" operator="out"/>
<feColorMatrix type="matrix" values="0 0 0 0 0 0 0 0 0 0 0 0 0 0 0 0 0 0 0.25 0"/>
<feBlend mode="normal" in2="BackgroundImageFix" result="effect1_dropShadow_102_186"/>
<feBlend mode="normal" in="SourceGraphic" in2="effect1_dropShadow_102_186" result="shape"/>
</filter>
</defs>
</svg>
