<svg width="48" height="48" viewBox="0 0 48 48" fill="none" xmlns="http://www.w3.org/2000/svg">
<g filter="url(#filter0_d_102_188)">
<path fill-rule="evenodd" clip-rule="evenodd" d="M22 2C18.0444 2 14.1776 3.17298 10.8886 5.37061C7.59962 7.56823 5.03617 10.6918 3.52242 14.3463C2.00867 18.0009 1.6126 22.0222 2.3843 25.9018C3.15601 29.7814 5.06082 33.3451 7.85787 36.1421C10.6549 38.9392 14.2186 40.844 18.0982 41.6157C21.9778 42.3874 25.9991 41.9913 29.6537 40.4776C33.3082 38.9638 36.4318 36.4004 38.6294 33.1114C40.827 29.8224 42 25.9556 42 22C42 16.6957 39.8929 11.6086 36.1421 7.85786C32.3914 4.10714 27.3043 2 22 2V2ZM17.6 11.4C18.744 11.344 19.104 11.336 22 11.336C24.896 11.336 25.256 11.336 26.392 11.4C27.278 11.4158 28.1547 11.5836 28.984 11.896C29.6939 12.168 30.3386 12.5863 30.8761 13.1239C31.4137 13.6614 31.832 14.3061 32.104 15.016C32.4172 15.8423 32.585 16.7165 32.6 17.6C32.656 18.736 32.664 19.104 32.664 22C32.664 24.896 32.664 25.256 32.6 26.4C32.5842 27.2834 32.4164 28.1575 32.104 28.984C31.8286 29.6919 31.409 30.3348 30.8719 30.8719C30.3348 31.409 29.6919 31.8286 28.984 32.104C28.1577 32.4172 27.2835 32.585 26.4 32.6C25.256 32.656 24.896 32.664 22 32.664C19.104 32.664 18.736 32.664 17.6 32.6C16.7165 32.585 15.8423 32.4172 15.016 32.104C14.3061 31.832 13.6614 31.4137 13.1239 30.8761C12.5863 30.3386 12.168 29.6939 11.896 28.984C11.5836 28.1575 11.4158 27.2834 11.4 26.4C11.344 25.256 11.336 24.896 11.336 22C11.336 19.104 11.336 18.736 11.4 17.6C11.415 16.7165 11.5828 15.8423 11.896 15.016C12.168 14.3061 12.5863 13.6614 13.1239 13.1239C13.6614 12.5863 14.3061 12.168 15.016 11.896C15.8425 11.5836 16.7166 11.4158 17.6 11.4Z" fill="#20026F"/>
<path fill-rule="evenodd" clip-rule="evenodd" d="M21.0476 13.2559H21.9996C24.8476 13.2559 25.1996 13.2559 26.3116 13.3199C26.9868 13.3251 27.6558 13.4497 28.2876 13.6879C28.7503 13.8606 29.1704 14.1307 29.5196 14.4799C29.8688 14.8291 30.1389 15.2492 30.3116 15.7119C30.5498 16.3437 30.6744 17.0127 30.6796 17.6879C30.7356 18.8159 30.7436 19.1519 30.7436 21.9999C30.7436 24.8479 30.7436 25.1999 30.6796 26.3039C30.6742 26.9816 30.5496 27.6532 30.3116 28.2879C30.1378 28.7495 29.8647 29.1674 29.5116 29.5119C29.1673 29.8689 28.7459 30.1425 28.2796 30.3119C27.647 30.547 26.9785 30.6715 26.3036 30.6799C25.1756 30.7279 24.8396 30.7359 21.9916 30.7359C19.1436 30.7359 18.7916 30.7359 17.6796 30.6799C17.0048 30.6706 16.3365 30.5461 15.7036 30.3119C15.2383 30.1408 14.8172 29.8674 14.4716 29.5119C14.1185 29.1674 13.8454 28.7495 13.6716 28.2879C13.4337 27.6532 13.3091 26.9816 13.3036 26.3039C13.2476 25.1839 13.2396 24.8399 13.2396 21.9919C13.2396 19.1439 13.2396 18.7919 13.3036 17.6879C13.3091 17.0101 13.4337 16.3385 13.6716 15.7039C13.8454 15.2422 14.1185 14.8243 14.4716 14.4799C14.8172 14.1243 15.2383 13.8509 15.7036 13.6799C16.3365 13.4456 17.0048 13.3212 17.6796 13.3119C18.6636 13.2719 19.0476 13.2559 21.0396 13.2559H21.0476ZM27.6956 15.0239C27.4425 15.0239 27.195 15.0989 26.9845 15.2396C26.774 15.3802 26.6099 15.5801 26.5131 15.814C26.4162 16.0479 26.3908 16.3053 26.4402 16.5536C26.4896 16.8019 26.6115 17.0299 26.7905 17.209C26.9695 17.388 27.1976 17.5099 27.4459 17.5593C27.6942 17.6087 27.9516 17.5833 28.1855 17.4864C28.4193 17.3895 28.6193 17.2255 28.7599 17.015C28.9006 16.8045 28.9756 16.557 28.9756 16.3039C28.9756 15.9644 28.8408 15.6388 28.6007 15.3988C28.3607 15.1587 28.0351 15.0239 27.6956 15.0239ZM16.5196 21.9999C16.5196 20.916 16.841 19.8565 17.4432 18.9553C18.0453 18.0542 18.9012 17.3518 19.9025 16.937C20.9039 16.5222 22.0057 16.4137 23.0687 16.6252C24.1317 16.8366 25.1082 17.3585 25.8746 18.1249C26.641 18.8913 27.1629 19.8677 27.3743 20.9308C27.5858 21.9938 27.4773 23.0956 27.0625 24.097C26.6477 25.0983 25.9453 25.9542 25.0441 26.5563C24.143 27.1585 23.0835 27.4799 21.9996 27.4799C20.5462 27.4799 19.1524 26.9025 18.1247 25.8748C17.097 24.8471 16.5196 23.4532 16.5196 21.9999Z" fill="#20026F"/>
<path d="M21.9999 18.448C22.7024 18.448 23.3891 18.6564 23.9733 19.0467C24.5574 19.437 25.0127 19.9917 25.2815 20.6408C25.5503 21.2898 25.6207 22.004 25.4836 22.693C25.3466 23.382 25.0083 24.0149 24.5115 24.5117C24.0148 25.0084 23.3819 25.3467 22.6928 25.4838C22.0038 25.6208 21.2896 25.5505 20.6406 25.2817C19.9915 25.0128 19.4368 24.5576 19.0465 23.9734C18.6562 23.3893 18.4479 22.7026 18.4479 22C18.4479 21.058 18.8221 20.1545 19.4882 19.4884C20.1544 18.8223 21.0578 18.448 21.9999 18.448Z" fill="#20026F"/>
</g>
<defs>
<filter id="filter0_d_102_188" x="0" y="0" width="48" height="48" filterUnits="userSpaceOnUse" color-interpolation-filters="sRGB">
<feFlood flood-opacity="0" result="BackgroundImageFix"/>
<feColorMatrix in="SourceAlpha" type="matrix" values="0 0 0 0 0 0 0 0 0 0 0 0 0 0 0 0 0 0 127 0" result="hardAlpha"/>
<feOffset dx="2" dy="2"/>
<feGaussianBlur stdDeviation="2"/>
<feComposite in2="hardAlpha" operator="out"/>
<feColorMatrix type="matrix" values="0 0 0 0 0 0 0 0 0 0 0 0 0 0 0 0 0 0 0.25 0"/>
<feBlend mode="normal" in2="BackgroundImageFix" result="effect1_dropShadow_102_188"/>
<feBlend mode="normal" in="SourceGraphic" in2="effect1_dropShadow_102_188" result="shape"/>
</filter>
</defs>
</svg>
