<svg width="48" height="41" viewBox="0 0 48 41" fill="none" xmlns="http://www.w3.org/2000/svg">
<g filter="url(#filter0_d_102_192)">
<path d="M42 5.84532C40.4959 6.50337 38.9048 6.94109 37.2758 7.14497C38.9919 6.1261 40.275 4.51355 40.8823 2.61244C39.2754 3.56598 37.5172 4.23741 35.6837 4.59765C34.5596 3.39627 33.1 2.5608 31.4948 2.19982C29.8896 1.83884 28.2129 1.96903 26.6827 2.57349C25.1525 3.17795 23.8394 4.22872 22.9142 5.58923C21.989 6.94975 21.4944 8.5571 21.4948 10.2024C21.4892 10.8305 21.5546 11.4572 21.6897 12.0706C18.4285 11.91 15.238 11.0629 12.3266 9.58485C9.41518 8.10675 6.84848 6.03089 4.79425 3.49295C3.73958 5.29718 3.41323 7.43589 3.88179 9.47256C4.35035 11.5092 5.5785 13.2903 7.31557 14.4523C6.01687 14.419 4.74528 14.0735 3.60832 13.445V13.5328C3.60991 15.4255 4.26334 17.2599 5.45867 18.7275C6.65399 20.195 8.31828 21.2061 10.1716 21.5906C9.46961 21.7749 8.74636 21.8656 8.02063 21.8603C7.49941 21.8699 6.97868 21.8231 6.46755 21.7206C6.99704 23.3484 8.0181 24.772 9.39015 25.7955C10.7622 26.819 12.4178 27.3921 14.129 27.4358C11.2225 29.7071 7.63821 30.9381 3.94948 30.9318C3.29787 30.9362 2.64667 30.8983 2 30.8181C5.75088 33.2314 10.1205 34.5066 14.5806 34.4896C29.6696 34.4896 37.9223 21.9902 37.9223 11.1544C37.9223 10.7905 37.9223 10.4428 37.8899 10.0952C39.5064 8.93966 40.8991 7.49957 42 5.84532Z" fill="#20026F"/>
</g>
<defs>
<filter id="filter0_d_102_192" x="0" y="0" width="48" height="40.4898" filterUnits="userSpaceOnUse" color-interpolation-filters="sRGB">
<feFlood flood-opacity="0" result="BackgroundImageFix"/>
<feColorMatrix in="SourceAlpha" type="matrix" values="0 0 0 0 0 0 0 0 0 0 0 0 0 0 0 0 0 0 127 0" result="hardAlpha"/>
<feOffset dx="2" dy="2"/>
<feGaussianBlur stdDeviation="2"/>
<feComposite in2="hardAlpha" operator="out"/>
<feColorMatrix type="matrix" values="0 0 0 0 0 0 0 0 0 0 0 0 0 0 0 0 0 0 0.25 0"/>
<feBlend mode="normal" in2="BackgroundImageFix" result="effect1_dropShadow_102_192"/>
<feBlend mode="normal" in="SourceGraphic" in2="effect1_dropShadow_102_192" result="shape"/>
</filter>
</defs>
</svg>
