<svg width="48" height="49" viewBox="0 0 48 49" fill="none" xmlns="http://www.w3.org/2000/svg">
<g filter="url(#filter0_d_102_194)">
<path d="M22 12.7731C20.2454 12.7722 18.524 13.2514 17.0222 14.1587C15.5204 15.0661 14.2955 16.367 13.48 17.9206C12.6646 19.4742 12.2898 21.2213 12.3961 22.9727C12.5024 24.724 13.0859 26.4129 14.0833 27.8565L13.1667 31.4065L16.8 30.4565C18.0563 31.2718 19.4857 31.7825 20.9743 31.9477C22.4629 32.1129 23.9695 31.9282 25.374 31.4082C26.7786 30.8883 28.0422 30.0474 29.0644 28.9527C30.0865 27.858 30.8388 26.5396 31.2613 25.1028C31.6838 23.6659 31.7649 22.1502 31.4981 20.6764C31.2313 19.2027 30.6239 17.8116 29.7244 16.6141C28.8249 15.4166 27.6581 14.4457 26.3171 13.7789C24.976 13.112 23.4977 12.7676 22 12.7731ZM27.65 26.5231C27.4378 26.8739 27.1548 27.1767 26.819 27.412C26.4833 27.6473 26.1022 27.81 25.7 27.8898C25.0938 27.9954 24.4711 27.9554 23.8833 27.7731C23.4667 27.6398 22.9333 27.4565 22.2167 27.1731C20.1993 26.1761 18.4762 24.6712 17.2167 22.8065C16.5873 21.9336 16.2228 20.8978 16.1667 19.8231C16.1685 19.3855 16.2596 18.9528 16.4344 18.5516C16.6092 18.1504 16.8641 17.7891 17.1833 17.4898C17.2804 17.3809 17.3982 17.2924 17.5298 17.2294C17.6615 17.1665 17.8043 17.1304 17.95 17.1231H18.5C18.6833 17.1231 18.9167 17.1231 19.1667 17.6231C19.4167 18.1231 19.9833 19.6231 20.05 19.7565C20.091 19.8364 20.1123 19.925 20.1123 20.0148C20.1123 20.1046 20.091 20.1932 20.05 20.2731C19.9835 20.4491 19.8877 20.6125 19.7667 20.7565L19.3333 21.2565C19.1833 21.4065 19.0333 21.5565 19.2 21.8398C19.6459 22.5956 20.2084 23.2762 20.8667 23.8565C21.552 24.4621 22.3354 24.9468 23.1833 25.2898C23.4667 25.4231 23.65 25.4065 23.8167 25.2065C23.9833 25.0065 24.5333 24.3731 24.7333 24.0731C24.9333 23.7731 25.1167 23.8398 25.3833 23.9398C25.65 24.0398 27.05 24.7231 27.35 24.8731C27.65 25.0231 27.8333 25.0898 27.9 25.2065C27.9667 25.6555 27.897 26.1142 27.7 26.5231H27.65ZM22 2.48981C18.0444 2.48981 14.1776 3.66279 10.8886 5.86041C7.59962 8.05804 5.03617 11.1816 3.52242 14.8361C2.00867 18.4907 1.6126 22.512 2.3843 26.3916C3.15601 30.2712 5.06082 33.8349 7.85787 36.6319C10.6549 39.429 14.2186 41.3338 18.0982 42.1055C21.9778 42.8772 25.9992 42.4811 29.6537 40.9674C33.3082 39.4536 36.4318 36.8902 38.6294 33.6012C40.827 30.3122 42 26.4454 42 22.4898C42 17.1855 39.8929 12.0984 36.1421 8.34767C32.3914 4.59694 27.3043 2.48981 22 2.48981V2.48981ZM22 33.9565C20.0794 33.9264 18.1958 33.4226 16.5167 32.4898L10.3333 34.1565L12 28.1565C11.1417 26.6182 10.6461 24.9042 10.551 23.1453C10.4558 21.3864 10.7637 19.629 11.4511 18.0071C12.1384 16.3852 13.1871 14.9418 14.5172 13.7869C15.8473 12.632 17.4236 11.7961 19.1258 11.3431C20.828 10.89 22.6113 10.8317 24.3395 11.1727C26.0677 11.5136 27.6952 12.2448 29.0978 13.3104C30.5004 14.3759 31.6412 15.7478 32.433 17.3213C33.2248 18.8948 33.6467 20.6284 33.6667 22.3898C33.6403 25.4666 32.3995 28.4085 30.2144 30.5748C28.0294 32.7412 25.0769 33.9566 22 33.9565Z" fill="#20026F"/>
</g>
<defs>
<filter id="filter0_d_102_194" x="0" y="0.489807" width="48" height="48" filterUnits="userSpaceOnUse" color-interpolation-filters="sRGB">
<feFlood flood-opacity="0" result="BackgroundImageFix"/>
<feColorMatrix in="SourceAlpha" type="matrix" values="0 0 0 0 0 0 0 0 0 0 0 0 0 0 0 0 0 0 127 0" result="hardAlpha"/>
<feOffset dx="2" dy="2"/>
<feGaussianBlur stdDeviation="2"/>
<feComposite in2="hardAlpha" operator="out"/>
<feColorMatrix type="matrix" values="0 0 0 0 0 0 0 0 0 0 0 0 0 0 0 0 0 0 0.25 0"/>
<feBlend mode="normal" in2="BackgroundImageFix" result="effect1_dropShadow_102_194"/>
<feBlend mode="normal" in="SourceGraphic" in2="effect1_dropShadow_102_194" result="shape"/>
</filter>
</defs>
</svg>
