<svg width="50" height="50" viewBox="0 0 50 50" fill="none" xmlns="http://www.w3.org/2000/svg">
<path d="M49.7354 20.4375C49.9146 19.9146 50 19.3792 50 18.8479C50 17.2437 49.2104 15.6937 47.8021 14.7188C43.3187 11.6104 43.9104 12.3917 42.2187 7.33542C41.5125 5.22292 39.4667 3.79375 37.1583 3.80208C31.6292 3.81875 32.5896 4.12083 28.1271 0.98125C27.1979 0.327083 26.0979 0 25 0C23.9021 0 22.8021 0.327083 21.8708 0.98125C17.3833 4.1375 18.3562 3.81875 12.8396 3.80208C10.5333 3.79583 8.48542 5.225 7.77917 7.33542C6.0875 12.4042 6.66875 11.6167 2.19583 14.7188C0.789583 15.6958 0 17.2437 0 18.8479C0 19.3792 0.0854167 19.9146 0.264583 20.4375C1.99375 25.4958 1.9875 24.5271 0.264583 29.5625C0.0854167 30.0854 0 30.6229 0 31.1521C0 32.7562 0.789583 34.3062 2.19792 35.2812C6.67083 38.3833 6.09167 37.6021 7.78125 42.6646C8.4875 44.7771 10.5333 46.2062 12.8417 46.1979C18.3708 46.1792 17.4104 45.8812 21.8729 49.0187C22.8021 49.6729 23.9021 50 25 50C26.0979 50 27.1979 49.6729 28.1292 49.0187C32.5896 45.8812 31.6312 46.1812 37.1604 46.1979C39.4667 46.2042 41.5146 44.775 42.2208 42.6646C43.9125 37.6062 43.3208 38.3875 47.8042 35.2812C49.2104 34.3062 50 32.7562 50 31.1521C50 30.6229 49.9146 30.0854 49.7354 29.5625C48.0042 24.5062 48.0125 25.4729 49.7354 20.4375ZM33.975 24.5708C34.8458 24.6875 35.2875 25.2542 35.2875 25.8417C35.2875 26.5146 34.7104 27.2167 33.5292 27.3104C32.8042 27.3667 32.625 27.9604 33.4958 28.1562C34.2271 28.3229 34.6396 28.8354 34.6396 29.3875C34.6396 30.0417 34.0583 30.75 32.7375 30.9937C31.9396 31.1396 31.8604 31.9208 32.7042 31.9875C33.4208 32.0417 33.7021 32.2917 33.7021 32.6375C33.7021 33.6083 31.9812 35.4146 28.6479 35.4146C23.4375 35.4167 21.55 32.2917 14.5833 32.2917V21.95C18.2625 21.3854 21.8417 20.2479 23.6333 14.0292C24.1312 12.2979 24.4458 10.4167 26.1062 10.4167C28.5812 10.4167 28.8083 15.7542 27.8646 19.5646C29.2312 20.2812 31.7708 20.5396 33.05 20.4854C34.8958 20.4104 35.4167 21.3375 35.4167 22.0375C35.4167 23.0896 34.55 23.4438 34.0062 23.6104C33.3729 23.8062 33.0812 24.4521 33.975 24.5708Z" fill="#81C214"/>
</svg>
