<svg width="55" height="55" viewBox="0 0 55 55" fill="none" xmlns="http://www.w3.org/2000/svg">
<g clip-path="url(#clip0_100_323)">
<path fill-rule="evenodd" clip-rule="evenodd" d="M16.0416 37.785L19.5387 36.1281C23.6453 34.2719 26.0722 35.3398 29.5051 36.6598C33.4376 38.1746 34.9249 38.6833 36.5566 39.3273C39.4853 40.4869 38.1333 44.3162 35.1999 43.5394C33.417 43.0673 28.7558 41.7175 27.4541 41.4058C25.9874 41.0529 25.3228 42.7854 26.7139 43.2804C29.2485 44.181 32.8166 45.0908 34.721 45.5881C36.6253 46.0877 37.6887 45.2558 39.0316 44.1879C41.1078 42.5379 45.8333 37.5214 45.8333 37.5214C47.7628 35.6904 50.396 37.2121 50.396 39.1715C50.396 39.6985 50.2058 40.2577 49.7635 40.7917C44.4285 47.1923 42.751 49.1379 39.2951 52.7679C37.8674 54.2689 36.2197 55 34.2443 55C33.2314 55 32.1314 54.8075 30.9374 54.4271C26.7551 53.0956 21.3766 51.4181 16.0416 50.7604V37.785ZM13.7499 52.7679H4.58325V34.4346H13.7499V52.7679ZM16.0416 34.7348V30.8069C16.0278 27.2387 16.1837 25.1992 20.2903 24.2504C24.7889 23.2123 30.1789 22.2819 28.0453 18.3448C21.718 6.67561 26.2418 0.0595703 33.0343 0.0595703C39.6962 0.0595703 44.3322 6.4304 38.0233 18.3448C35.9516 22.2589 41.1812 23.1894 45.7783 24.2504C49.901 25.2014 50.0385 27.2548 50.0247 30.8481C50.0247 31.146 49.9995 33.5317 50.0247 34.6637C48.9178 33.9556 46.7201 33.3987 45.0128 34.9067C43.7868 35.9883 43.7112 36.0617 40.9268 38.6398C36.9164 36.7354 30.7151 34.3246 26.6864 32.961C24.633 32.2644 22.0114 32.2552 19.8985 33.1329L16.0416 34.7348Z" fill="#81C214"/>
</g>
<defs>
<clipPath id="clip0_100_323">
<rect width="55" height="55" fill="white"/>
</clipPath>
</defs>
</svg>
