<svg width="50" height="50" viewBox="0 0 50 50" fill="none" xmlns="http://www.w3.org/2000/svg">
<path d="M25.3417 14.9271C22.9458 15.325 21.7958 17.4958 22.7771 19.7771C23.8146 22.1833 26.7792 23.725 29.2229 23.1167C31.3875 22.5812 32.3875 20.5083 31.45 18.3354C30.4687 16.0542 27.7333 14.5292 25.3417 14.9271ZM28.4333 21.1729L28.65 21.65L28.1937 21.7437L27.9917 21.2875C27.5208 21.3729 26.9875 21.3604 26.4937 21.2312L26.3583 20.425C26.7646 20.4875 27.2708 20.5458 27.6562 20.4667L27.9167 20.3812C28.3771 20.1542 28.2333 19.575 27.55 19.4375C27.0396 19.325 25.6896 19.4083 25.1854 18.2875C24.9021 17.6542 25.1125 16.9937 25.9271 16.6917L25.7021 16.1937L26.1542 16.1L26.3708 16.5771C26.7021 16.5229 27.0896 16.5021 27.5437 16.5417L27.725 17.3396C27.3708 17.2958 26.9896 17.2542 26.6583 17.3229L26.5333 17.3562C25.8896 17.5271 26.0958 18.1375 26.6667 18.2854C27.6104 18.5042 28.7375 18.575 29.1833 19.5604C29.5437 20.3625 29.125 20.9104 28.4333 21.1729ZM49.9167 23.375L42.0708 6.25C29.2 14.5917 14.9729 5.5875 4.67292 15.5292L12.5167 32.6542C23.5542 23.2958 38.5979 32.1583 49.9167 23.375ZM44.0771 19.5167C43.2958 20.6021 42.7167 21.8438 42.3708 23.1437C34.8854 25.4229 25.9312 22.725 17.3333 25.7292C15.9437 24.9917 14.2021 24.5292 12.7729 24.5708L10.4083 19.3896C11.3083 18.2958 12.0167 16.6292 12.3208 15.0271C19.4021 12.4729 28.2625 15.35 37.7333 12.1083C38.8187 12.8292 40.0875 13.3521 41.3375 13.6104L44.0771 19.5167ZM50 31.2708C35.7146 39.4813 24.1687 28.3042 9.375 43.75L0 22.9792L2.92083 19.9313L10.8521 37.4437L10.8479 37.4583C26.3583 25.8021 34.1708 35.0083 48.575 27.9521C49.1875 29.3021 49.7521 30.7271 50 31.2708Z" fill="#81C214"/>
</svg>
