<svg width="120" height="120" viewBox="0 0 120 120" fill="none" xmlns="http://www.w3.org/2000/svg">
<circle cx="60" cy="60" r="60" fill="#FBFFF2"/>
<path d="M60.5319 72.6049C61.6309 73.4036 61.8725 74.9453 61.057 76.0369L58.2325 79.8456C57.48 80.871 55.8454 81.1501 54.7814 80.3723C53.6824 79.5666 53.441 78.0285 54.2495 76.9333L57.0811 73.1246C57.8826 72.0434 59.4259 71.7923 60.5319 72.6049ZM43.2806 68.9567L46.1051 65.1654C46.9101 64.0703 46.679 62.5322 45.573 61.723C44.467 60.9138 42.9271 61.1545 42.1221 62.2496L39.301 66.0444C38.496 67.1361 38.7305 68.6812 39.8295 69.4868C40.8725 70.2472 42.5176 69.9961 43.2806 68.9567ZM52.0865 69.5078L49.2691 73.2955C48.4606 74.3942 48.7021 75.9358 49.7976 76.7415C50.8511 77.5123 52.4926 77.2472 53.2521 76.2148L56.0695 72.4201C56.878 71.3284 56.64 69.7868 55.541 68.9776C54.4455 68.1754 52.9055 68.4091 52.0865 69.5078ZM64.557 76.8915C64.109 77.9448 62.9049 79.4236 62.0824 80.5327C62.6249 80.8117 63.1676 80.9268 63.6611 80.9268C65.5581 80.9268 66.818 79.1446 65.1135 77.446L64.557 76.8915ZM47.1059 65.8805L44.2641 69.7031C43.4591 70.7983 43.7144 72.305 44.8099 73.1142C45.8879 73.8989 47.498 73.6373 48.2435 72.6154L51.0855 68.7893C51.8975 67.7011 51.6561 66.156 50.5536 65.3503C49.4511 64.5481 47.9109 64.7888 47.1059 65.8805ZM91.717 63.0518L102 60.3279L96.4595 39.0732L86.033 42.1982L91.717 63.0518ZM83.0301 44.4897C77.9446 44.8594 73.111 42.9935 67.8015 40.2625C66.6325 39.6626 65.2849 39.1743 63.9689 39.1743C62.7579 39.1743 61.5714 39.5894 60.5774 40.7124C56.9934 44.7618 54.911 48.3403 50.641 50.8201C48.5375 52.0443 51.0049 55.8774 55.5269 54.3044C57.8299 53.4987 60.9521 51.42 63.4966 49.3761C65.4986 47.7683 66.6955 48.002 68.4315 49.7319C71.6795 52.9721 82.6169 63.7285 82.6169 63.7285C84.3074 62.6891 85.942 61.8486 87.5625 61.1266L83.0301 44.4897ZM33.967 42.1982L23.5405 39.0732L18 60.3279L28.283 63.0518L33.967 42.1982ZM80.8881 67.0523C79.1941 65.1864 67.8086 54.0324 65.7856 52.0199C62.3521 54.5869 57.8301 58.1619 53.4621 58.1619C50.1616 58.1619 47.33 56.2192 46.574 53.4394C45.9685 51.2247 46.8994 48.9576 48.8839 47.8031C51.3689 46.3592 53.0174 44.3816 55.0264 41.9053C48.8874 38.0408 43.6515 44.3188 37.005 44.3781L32.5494 60.7185C34.4954 61.1789 36.1895 61.6672 37.761 62.2566L39.301 60.1814C42.073 56.411 47.855 57.1923 49.626 61.4056C51.866 61.6009 53.7771 63.0414 54.6101 65.0329C56.7766 65.2213 58.7191 66.592 59.5871 68.6567C62.8631 68.9392 65.537 71.9004 64.942 75.5347L67.2309 77.8157C68.1934 78.7784 69.7615 78.7749 70.7205 77.8157C71.6865 76.8531 71.6865 75.294 70.7205 74.3314L66.2965 69.9193C66.055 69.6787 66.055 69.2811 66.307 69.0404C66.5485 68.8102 66.9335 68.8137 67.1715 69.0474L72.5021 74.3628C73.4646 75.3254 75.0325 75.3254 75.995 74.3628C76.961 73.4001 76.961 71.8446 75.995 70.882L69.4325 64.3388C69.1805 64.0912 69.191 63.6831 69.4535 63.4494C69.695 63.2297 70.0764 63.2332 70.3039 63.4669L77.3915 70.5297C78.354 71.4923 79.9219 71.4923 80.8844 70.5297C81.8504 69.5705 81.8506 68.015 80.8881 67.0523Z" fill="#81C214"/>
</svg>
