<svg width="120" height="120" viewBox="0 0 120 120" fill="none" xmlns="http://www.w3.org/2000/svg">
<circle cx="60" cy="60" r="60" fill="#FBFFF2"/>
<g clip-path="url(#clip0_261_677)">
<path d="M84.4997 21.5C84.4997 55.8105 66.6707 67.1855 64.9277 81H55.1102C53.3672 67.1855 35.4997 55.8105 35.4997 21.5H84.4997ZM58.9322 67.1855C52.3312 55.7755 49.7097 41.1735 49.6712 28.5H43.7247C44.4422 44.768 50.6897 57.6655 58.9322 67.1855ZM65.0327 84.5H55.0017C54.2947 88.6545 52.7967 93.6665 46.0032 93.6665V98.5H74.0032V93.6665C67.0067 93.6665 65.7047 88.6545 65.0327 84.5ZM89.8127 78.914C84.9057 76.695 80.6812 78.249 78.0737 79.9395C80.6812 78.2455 83.6842 74.8155 83.6562 69.429C74.5877 73.062 75.6237 78.165 73.9787 81.1365C72.8762 83.135 70.4542 82.0955 70.4542 82.0955L69.7087 83.3275C70.9862 84.003 73.1702 84.444 75.7147 84.444C80.2892 84.444 86.0362 83.0125 89.8127 78.914ZM98.3667 64.837C93.5297 65.1765 90.9537 68.5505 89.6132 71.0075C90.9537 68.5505 91.7622 64.2105 89.4382 59.9545C83.8032 66.706 86.8062 70.3075 86.7712 73.363C86.7572 74.8575 85.0562 74.8225 85.0562 74.8225L85.0807 76.2365C86.1797 76.093 96.1197 73.727 98.3667 64.837ZM101.993 51.292C97.8942 52.783 96.5327 56.4475 95.9797 58.9045C96.5327 56.4475 96.1232 52.384 93.0572 49.2795C89.8547 56.5175 93.3442 58.887 94.0722 61.54C94.4292 62.8385 92.9347 63.661 92.9347 63.661L93.9497 64.2875C94.1632 64.186 102.297 59.6255 101.993 51.292ZM101.293 38.02C98.1322 40.351 97.7332 43.928 97.8837 46.1925C97.7367 43.9315 96.5012 40.456 93.0677 38.5555C92.1437 45.6185 95.7592 46.777 97.0647 48.8805C97.7017 49.9095 97.1452 51.1835 97.1452 51.1835L98.1392 51.117C98.1392 51.117 98.2302 50.6725 98.7307 49.57C99.7492 47.316 103.123 44.901 101.293 38.02ZM94.6392 28.5C94.6392 28.5 93.6837 31.944 94.4817 34.562C95.3357 37.355 97.5372 39.3255 97.5372 39.3255C97.5372 39.3255 98.7272 36.27 97.8837 33.26C97.1067 30.488 94.6392 28.5 94.6392 28.5ZM50.2942 83.3275L49.5487 82.0955C49.5487 82.0955 47.1302 83.135 46.0242 81.1365C44.3792 78.165 45.4152 73.062 36.3467 69.429C36.3187 74.8155 39.3217 78.249 41.9292 79.9395C39.3217 78.2455 35.0972 76.695 30.1902 78.914C33.9632 83.0125 39.7137 84.4475 44.2882 84.4475C46.8327 84.444 49.0132 84.003 50.2942 83.3275ZM34.9187 76.233L34.9432 74.819C34.9432 74.819 33.2422 74.854 33.2282 73.3595C33.1967 70.304 36.1962 66.706 30.5612 59.951C28.2372 64.207 29.0457 68.5505 30.3862 71.004C29.0457 68.547 26.4662 65.173 21.6327 64.8335C23.8797 73.727 33.8197 76.093 34.9187 76.233ZM26.0532 64.2875L27.0682 63.661C27.0682 63.661 25.5737 62.835 25.9307 61.54C26.6587 58.887 30.1482 56.5175 26.9457 49.2795C23.8797 52.384 23.4667 56.4475 24.0232 58.9045C23.4702 56.4475 22.1122 52.783 18.0102 51.292C17.7022 59.6255 25.8362 64.186 26.0532 64.2875ZM21.2722 49.5735C21.7727 50.676 21.8637 51.1205 21.8637 51.1205L22.8577 51.187C22.8577 51.187 22.3012 49.913 22.9382 48.884C24.2437 46.7805 27.8557 45.6185 26.9352 38.559C23.4947 40.456 22.2627 43.928 22.1157 46.1925C22.2627 43.928 21.8637 40.3475 18.7067 38.02C16.8762 44.901 20.2502 47.316 21.2722 49.5735ZM22.1157 33.26C21.2757 36.27 22.4622 39.3255 22.4622 39.3255C22.4622 39.3255 24.6637 37.355 25.5177 34.562C26.3157 31.944 25.3602 28.5 25.3602 28.5C25.3602 28.5 22.8927 30.488 22.1157 33.26Z" fill="#81C214"/>
</g>
<defs>
<clipPath id="clip0_261_677">
<rect width="84" height="84" fill="white" transform="translate(18 18)"/>
</clipPath>
</defs>
</svg>
