<svg width="120" height="120" viewBox="0 0 120 120" fill="none" xmlns="http://www.w3.org/2000/svg">
<circle cx="60" cy="60" r="60" fill="#FBFFF2"/>
<path fill-rule="evenodd" clip-rule="evenodd" d="M42.4972 75.6795L47.9228 73.1462C54.2942 70.3082 58.0594 71.9409 63.3854 73.9591C69.4866 76.2751 71.7941 77.053 74.3256 78.0375C78.8694 79.8105 76.7717 85.6653 72.2207 84.4775C69.4546 83.7557 62.2228 81.692 60.2033 81.2155C57.9278 80.6759 56.8968 83.3248 59.0549 84.0816C62.9872 85.4586 68.5231 86.8496 71.4776 87.6099C74.4322 88.3737 76.0819 87.1019 78.1654 85.4691C81.3867 82.9464 88.718 75.2765 88.718 75.2765C91.7117 72.477 95.7969 74.8035 95.7969 77.7993C95.7969 78.6052 95.5018 79.4601 94.8156 80.2765C86.5385 90.0626 83.9359 93.0373 78.5743 98.5873C76.3593 100.882 73.8029 102 70.7381 102C69.1666 102 67.46 101.706 65.6076 101.124C59.1189 99.0883 50.7743 96.5236 42.4972 95.518V75.6795ZM38.9418 98.5873H24.72V70.5569H38.9418V98.5873ZM42.4972 71.0159V65.0104C42.4759 59.555 42.7176 56.4366 49.089 54.9861C56.0683 53.3988 64.4308 51.9763 61.1206 45.9568C51.304 28.1155 58.3225 18 68.8608 18C79.1965 18 86.3892 27.7406 76.601 45.9568C73.3869 51.9413 81.5005 53.3638 88.6327 54.9861C95.0289 56.4401 95.2422 59.5795 95.2209 65.0735C95.2209 65.529 95.1818 69.1764 95.2209 70.9073C93.5036 69.8246 90.094 68.9732 87.4452 71.2787C85.543 72.9325 85.4257 73.0446 81.1058 76.9864C74.8838 74.0747 65.2627 70.3888 59.0123 68.304C55.8266 67.2388 51.7591 67.2248 48.481 68.5668L42.4972 71.0159Z" fill="#81C214"/>
</svg>
