<svg width="55" height="55" viewBox="0 0 55 55" fill="none" xmlns="http://www.w3.org/2000/svg">
<g clip-path="url(#clip0_100_318)">
<path fill-rule="evenodd" clip-rule="evenodd" d="M16.0416 37.7254L19.5387 36.0685C23.6453 34.2123 26.0722 35.2802 29.5051 36.6002C33.4376 38.115 34.9249 38.6238 36.5566 39.2677C39.4853 40.4273 38.1333 44.2567 35.1999 43.4798C33.417 43.0077 28.7558 41.6579 27.4541 41.3463C25.9874 40.9933 25.3228 42.7258 26.7139 43.2208C29.2485 44.1215 32.8166 45.0313 34.721 45.5285C36.6253 46.0281 37.6887 45.1963 39.0316 44.1283C41.1078 42.4783 45.8333 37.4619 45.8333 37.4619C47.7628 35.6308 50.396 37.1525 50.396 39.1119C50.396 39.639 50.2058 40.1981 49.7635 40.7321C44.4285 47.1327 42.751 49.0783 39.2951 52.7083C37.8674 54.2094 36.2197 54.9404 34.2443 54.9404C33.2314 54.9404 32.1314 54.7479 30.9374 54.3675C26.7551 53.036 21.3766 51.3585 16.0416 50.7008V37.7254ZM13.7499 52.7083H4.58325V34.375H13.7499V52.7083ZM48.1249 26.361L33.2291 34.3085V17.7742L48.1249 10.1085V26.361ZM30.9374 17.7192V34.2558L16.1378 26.361V10.0146L30.9374 17.7192ZM23.1274 4.91104L38.0828 12.6981L32.1337 15.7598L17.3501 8.06208L23.1274 4.91104ZM46.9172 8.15375L40.5785 11.4148L25.5497 3.58875L32.1314 0L46.9172 8.15375Z" fill="#81C214"/>
</g>
<defs>
<clipPath id="clip0_100_318">
<rect width="55" height="55" fill="white"/>
</clipPath>
</defs>
</svg>
