<svg width="50" height="50" viewBox="0 0 50 50" fill="none" xmlns="http://www.w3.org/2000/svg">
<path d="M32.9042 5.63956C31.5833 4.31873 32.5417 2.08331 34.3771 2.08331C34.9104 2.08331 35.4437 2.28748 35.85 2.69373L44.6896 11.5312C45.5042 12.3458 45.5042 13.6625 44.6896 14.4771C43.875 15.2916 42.5583 15.2916 41.7438 14.4771L32.9042 5.63956ZM29.1312 25H5.33958L4.4125 24.0729C3.97083 23.6291 4.14375 22.8041 4.80417 22.5708C17.6604 19.7437 24.3354 19.9437 33.0812 11.2916L30.1354 8.34581C22.2521 16.25 15.0708 16.0791 3.4125 18.6458C1.26875 19.4083 0 21.3896 0 23.4833C0 24.7437 0.466667 26.0187 1.46875 27.0187L20.8458 46.3958C21.8458 47.3958 23.1187 47.9166 24.3792 47.9166C26.4625 47.9166 28.4521 46.6062 29.2187 44.45C31.7917 32.7479 31.0604 25.1 38.975 17.1875L36.0292 14.2416C32.4208 17.85 30.4271 21.3208 29.1312 25ZM50 28.1604C50 31 47.6958 33.3333 44.8542 33.3333C38.6229 33.3333 36.3958 24.5416 46.7542 16.6666C46.6333 21.5937 50 23.5458 50 28.1604ZM45.0604 20.9396C44.3396 21.3333 43.2771 22.3937 43.1146 23.7166C42.875 25.6958 44.9208 26.2791 45.1 23.625C45.1833 22.5062 45.1 21.9708 45.0604 20.9396Z" fill="#81C214"/>
</svg>
