<svg width="120" height="120" viewBox="0 0 120 120" fill="none" xmlns="http://www.w3.org/2000/svg">
<circle cx="60" cy="60" r="60" fill="#FBFFF2"/>
<path d="M86.25 52.9999C77.5595 52.9999 70.5 60.0524 70.5 68.7499C70.5 77.4474 77.5595 84.4999 86.25 84.4999C94.9405 84.4999 102 77.4474 102 68.7499C102 60.0524 94.9405 52.9999 86.25 52.9999ZM95 70.4999H88V77.4999H84.5V70.4999H77.5V66.9999H84.5V59.9999H88V66.9999H95V70.4999ZM72.1555 86.5754C68.2775 90.3764 64.193 94.3419 60 98.4999C37.495 76.1664 18 59.4854 18 43.1719C18 19.4804 48.982 13.9609 60 32.8679C70.9375 14.1009 102 19.3999 102 43.1719C102 45.7829 101.454 48.4079 100.52 51.0574C96.6135 47.9004 91.6505 45.9999 86.25 45.9999C73.706 45.9999 63.5 56.2059 63.5 68.7499C63.5 75.9704 66.895 82.4034 72.1555 86.5754Z" fill="#81C214"/>
</svg>
