<svg width="300" height="256" viewBox="0 0 300 256" fill="none" xmlns="http://www.w3.org/2000/svg">
<path d="M155.535 37.9828C155.764 38.6426 156.134 39.2442 156.62 39.745C157.106 40.2459 157.695 40.6339 158.346 40.8817C158.998 41.1295 159.696 41.2311 160.391 41.1793C161.085 41.1275 161.761 40.9236 162.368 40.582L203.706 53.8754L217.387 43.1144L164.067 33.7544C163.427 32.7688 162.448 32.0529 161.317 31.7423C160.185 31.4317 158.979 31.5481 157.928 32.0693C156.876 32.5905 156.052 33.4803 155.611 34.5702C155.17 35.6601 155.143 36.8743 155.535 37.9828Z" fill="#FFB6B6"/>
<path d="M232.1 55.7477C232.1 55.7477 231.726 54.8269 226.78 56.8305C220.64 59.3175 187.954 57.6549 186.142 48.72C185.564 49.3185 184.803 49.707 183.981 49.8244C183.158 49.9419 182.319 49.7815 181.598 49.3687L186.707 38.1249C189.367 37.2725 190.812 36.6418 190.984 37.7277L198.981 37.2561L231.369 42.7219L232.264 53.9301L232.1 55.7477Z" fill="#F2F2F2"/>
<path d="M221.915 44.475L237.999 43.0791L253.078 49.9895L261.545 167.419L228.317 152.013L214.06 155.967L221.915 44.475Z" fill="#F2F2F2"/>
<path d="M261.486 249.419L255.385 249.419L252.483 225.827L261.487 225.827L261.486 249.419Z" fill="#FFB6B6"/>
<path d="M263.042 255.348L243.37 255.347V255.098C243.37 253.062 244.177 251.109 245.613 249.67C247.049 248.23 248.996 247.422 251.027 247.422H251.027L254.621 244.688L261.325 247.422L263.042 247.422L263.042 255.348Z" fill="#2F2E41"/>
<path d="M237.844 245.565L231.893 246.912L223.878 224.54L232.661 222.552L237.844 245.565Z" fill="#FFB6B6"/>
<path d="M240.664 251.004L221.475 255.348L221.421 255.105C220.973 253.119 221.331 251.036 222.416 249.315C223.5 247.594 225.222 246.375 227.203 245.926L227.203 245.926L230.108 242.467L237.248 243.652L238.923 243.273L240.664 251.004Z" fill="#2F2E41"/>
<path d="M269.213 105.19C272.073 113.839 271.771 123.227 268.525 133.303L267.138 190.034C269.432 192.564 269.782 215.208 266.249 222.597C261.531 232.463 265.87 233.782 262.535 240.328H252.861L248.39 210.673L248.072 186.636C246.787 183.587 247.842 172.854 247.842 172.854L247.47 150.598L230.028 189.585C237.93 196.366 237.219 218.27 237.349 227.986L239.94 239.45L228.034 240.517L222.78 224.97L216.873 215.389C213.863 198.414 212.97 185.951 215.537 180.86L233.046 115.55L269.213 105.19Z" fill="#2F2E41"/>
<path d="M270.452 102.303L268.858 99.1056C266.905 86.9807 264.977 75.6716 267.597 65.4991C267.762 56.6188 265.024 48.2761 257.422 43.7204L253.993 41.6642L252.257 37.25L236.273 37.6414L236.226 43.428L230.501 52.5819V52.6196L230.858 102.43L232.439 107.571L230.054 113.551L231.319 117.366L262.832 112.315L266.496 111.726C266.919 111.59 267.328 111.411 267.715 111.193C269.029 110.461 270.06 109.306 270.64 107.915C270.673 107.835 270.702 107.76 270.73 107.679C270.977 107.03 271.12 106.346 271.153 105.651C271.21 104.493 270.969 103.34 270.452 102.303Z" fill="#3B1997"/>
<path opacity="0.2" d="M271.153 105.652C271.12 106.346 270.977 107.03 270.73 107.68L267.715 111.193C267.328 111.412 266.919 111.59 266.496 111.726L262.832 112.315L268.133 102.322L256.481 76.7471L271.153 105.652Z" fill="black"/>
<path d="M23.5802 208.981C19.8778 209.018 16.1782 208.762 12.5164 208.213C9.10673 207.634 7.37784 206.813 7.37784 205.772L7.3791 205.753L13.7398 157.201L10.5363 147.994C10.4018 147.608 10.3621 147.194 10.4205 146.789C10.479 146.384 10.6339 145.999 10.8721 145.666C11.1103 145.334 11.4248 145.064 11.7891 144.879C12.1535 144.694 12.5568 144.599 12.9652 144.604L34.032 144.824C34.4329 144.828 34.8271 144.927 35.1825 145.113C35.5379 145.299 35.8445 145.566 36.0772 145.894C36.3099 146.221 36.4622 146.599 36.5216 146.996C36.581 147.394 36.5459 147.8 36.4191 148.181L33.4204 157.2L39.7812 205.753C39.7825 208.305 29.598 208.981 23.5802 208.981Z" fill="#F2F2F2"/>
<path d="M21.8636 202.146H11.5731V202.726H21.8636V202.146Z" fill="#CCCCCC"/>
<path d="M21.8636 198.665H11.5731V199.245H21.8636V198.665Z" fill="#CCCCCC"/>
<path d="M21.8636 195.185H11.5731V195.765H21.8636V195.185Z" fill="#CCCCCC"/>
<path d="M21.8636 191.704H11.5731V192.284H21.8636V191.704Z" fill="#CCCCCC"/>
<path d="M21.8636 188.223H11.5731V188.803H21.8636V188.223Z" fill="#CCCCCC"/>
<path d="M116.165 208.981C112.463 209.018 108.763 208.762 105.101 208.213C101.692 207.634 99.9626 206.813 99.9626 205.772L99.9639 205.753L106.325 157.201L103.121 147.994C102.987 147.608 102.947 147.194 103.005 146.789C103.064 146.384 103.219 145.999 103.457 145.666C103.695 145.334 104.01 145.064 104.374 144.879C104.738 144.694 105.142 144.599 105.55 144.604L126.617 144.824C127.018 144.828 127.412 144.927 127.767 145.113C128.123 145.299 128.429 145.566 128.662 145.894C128.895 146.221 129.047 146.599 129.106 146.996C129.166 147.394 129.131 147.8 129.004 148.181L126.005 157.2L132.366 205.753C132.367 208.305 122.183 208.981 116.165 208.981Z" fill="#F2F2F2"/>
<path d="M114.448 202.146H104.158V202.726H114.448V202.146Z" fill="#CCCCCC"/>
<path d="M114.448 198.665H104.158V199.245H114.448V198.665Z" fill="#CCCCCC"/>
<path d="M114.448 195.185H104.158V195.765H114.448V195.185Z" fill="#CCCCCC"/>
<path d="M114.448 191.704H104.158V192.284H114.448V191.704Z" fill="#CCCCCC"/>
<path d="M114.448 188.223H104.158V188.803H114.448V188.223Z" fill="#CCCCCC"/>
<path d="M72.7659 208.981C69.0635 209.018 65.364 208.762 61.7021 208.213C58.2924 207.634 56.5635 206.813 56.5635 205.772L56.5648 205.753L62.9255 157.201L59.722 147.994C59.5875 147.608 59.5478 147.194 59.6062 146.789C59.6647 146.384 59.8196 145.999 60.0578 145.666C60.296 145.334 60.6105 145.064 60.9749 144.879C61.3392 144.694 61.7426 144.599 62.1509 144.604L83.2177 144.824C83.6186 144.828 84.0128 144.927 84.3682 145.113C84.7236 145.299 85.0302 145.566 85.2629 145.894C85.4956 146.221 85.6479 146.599 85.7073 146.996C85.7667 147.394 85.7316 147.8 85.6048 148.181L82.6061 157.2L88.967 205.753C88.9682 208.305 78.7837 208.981 72.7659 208.981Z" fill="#F2F2F2"/>
<path d="M71.0493 202.146H60.7588V202.726H71.0493V202.146Z" fill="#CCCCCC"/>
<path d="M71.0493 198.665H60.7588V199.245H71.0493V198.665Z" fill="#CCCCCC"/>
<path d="M71.0493 195.185H60.7588V195.765H71.0493V195.185Z" fill="#CCCCCC"/>
<path d="M71.0493 191.704H60.7588V192.284H71.0493V191.704Z" fill="#CCCCCC"/>
<path d="M71.0493 188.223H60.7588V188.803H71.0493V188.223Z" fill="#CCCCCC"/>
<path d="M141.192 212.588H121.518V179.521H141.192C142.266 179.521 143.296 179.093 144.056 178.332C144.816 177.57 145.242 176.537 145.242 175.46C145.242 174.383 144.816 173.35 144.056 172.589C143.296 171.827 142.266 171.399 141.192 171.399H4.05058C2.9763 171.399 1.94602 171.827 1.18639 172.589C0.426759 173.35 0 174.383 0 175.46C0 176.537 0.426759 177.57 1.18639 178.332C1.94602 179.093 2.9763 179.521 4.05058 179.521H20.8316V212.588H4.05058C2.9763 212.588 1.94602 213.016 1.18639 213.778C0.42676 214.539 0 215.572 0 216.649C0 217.726 0.42676 218.759 1.18639 219.521C1.94602 220.282 2.9763 220.71 4.05058 220.71H141.192C141.724 220.711 142.251 220.606 142.743 220.402C143.235 220.199 143.682 219.9 144.059 219.522C144.435 219.145 144.734 218.697 144.938 218.204C145.142 217.711 145.247 217.183 145.247 216.649C145.247 216.116 145.142 215.587 144.938 215.094C144.734 214.601 144.435 214.153 144.059 213.776C143.682 213.399 143.235 213.1 142.743 212.896C142.251 212.692 141.724 212.588 141.192 212.588ZM28.9328 212.588V179.521H113.416V212.588H28.9328Z" fill="#CCCCCC"/>
<path d="M138.006 255.403C127.943 255.403 118.558 254.751 111.579 253.567C102.971 252.107 98.7861 249.986 98.7861 247.082L98.7908 246.99L113.9 131.646L106.336 109.906C105.973 108.883 105.864 107.787 106.019 106.712C106.174 105.638 106.588 104.617 107.225 103.739C107.847 102.848 108.68 102.124 109.648 101.633C110.617 101.142 111.691 100.899 112.777 100.925L162.869 101.448C163.931 101.459 164.975 101.721 165.916 102.214C166.858 102.706 167.67 103.415 168.286 104.282C168.902 105.148 169.306 106.149 169.463 107.202C169.62 108.255 169.527 109.33 169.192 110.34L162.11 131.638L177.223 246.992V247.037C177.224 250.168 172.486 252.391 162.739 253.833C153.162 255.25 142.252 255.403 138.006 255.403Z" fill="white"/>
<path d="M138.006 255.403C127.943 255.403 118.558 254.751 111.579 253.567C102.971 252.107 98.7861 249.986 98.7861 247.082L98.7908 246.99L113.9 131.646L106.336 109.906C105.973 108.883 105.864 107.787 106.019 106.712C106.174 105.638 106.588 104.617 107.225 103.739C107.847 102.848 108.68 102.124 109.648 101.633C110.617 101.142 111.691 100.899 112.777 100.925L162.869 101.448C163.931 101.459 164.975 101.721 165.916 102.214C166.858 102.706 167.67 103.415 168.286 104.282C168.902 105.148 169.306 106.149 169.463 107.202C169.62 108.255 169.527 109.33 169.192 110.34L162.11 131.638L177.223 246.992V247.037C177.224 250.168 172.486 252.391 162.739 253.833C153.162 255.25 142.252 255.403 138.006 255.403ZM112.638 102.303C111.795 102.302 110.964 102.506 110.216 102.896C109.468 103.286 108.826 103.851 108.343 104.544C107.836 105.243 107.506 106.055 107.383 106.91C107.26 107.765 107.346 108.637 107.635 109.451L115.307 131.5L115.286 131.663L100.16 247.127C100.162 248.258 101.675 250.488 111.809 252.206C118.714 253.378 128.017 254.023 138.006 254.023C146.786 254.023 155.957 253.442 162.538 252.468C170.945 251.225 175.788 249.262 175.846 247.078L160.705 131.503L167.886 109.903C168.153 109.1 168.227 108.244 168.102 107.407C167.977 106.569 167.656 105.773 167.165 105.083C166.675 104.393 166.029 103.829 165.28 103.437C164.531 103.045 163.7 102.836 162.855 102.827L112.755 102.304C112.716 102.303 112.677 102.303 112.638 102.303Z" fill="#3F3D56"/>
<path opacity="0.5" d="M166.561 232.969H109.451L118.504 171.595L118.751 169.904L122.522 144.354C122.753 142.795 124.542 144.006 125.808 143.071C133.664 137.271 141.615 137.103 149.635 142.693C150.875 143.558 152.587 142.546 152.818 144.042L156.781 169.67L157.164 172.149L166.561 232.969Z" fill="#C3EF79"/>
<path d="M159.512 241.563H116.439C115.309 241.563 114.193 241.319 113.167 240.848C112.14 240.376 111.227 239.689 110.489 238.832C109.751 237.975 109.206 236.968 108.892 235.881C108.577 234.794 108.499 233.651 108.665 232.531L121.249 147.214C121.314 146.778 121.493 146.366 121.767 146.022C122.042 145.677 122.402 145.411 122.812 145.251C123.222 145.091 123.667 145.042 124.102 145.109C124.536 145.177 124.946 145.359 125.288 145.636C132.958 151.795 141.317 151.657 150.133 145.225C150.475 144.975 150.876 144.817 151.296 144.768C151.717 144.719 152.143 144.78 152.533 144.945C152.931 145.109 153.281 145.374 153.547 145.713C153.812 146.052 153.986 146.455 154.051 146.882L167.278 232.478C167.452 233.601 167.381 234.749 167.07 235.842C166.76 236.935 166.217 237.948 165.479 238.811C164.742 239.674 163.826 240.367 162.796 240.842C161.766 241.317 160.646 241.563 159.512 241.563L159.512 241.563Z" fill="#C3EF79"/>
<path d="M142.18 231.561H117.708V232.94H142.18V231.561Z" fill="white"/>
<path d="M142.18 223.283H117.708V224.663H142.18V223.283Z" fill="white"/>
<path d="M142.18 215.005H117.708V216.385H142.18V215.005Z" fill="white"/>
<path d="M142.18 206.727H117.708V208.107H142.18V206.727Z" fill="white"/>
<path d="M142.18 198.449H117.708V199.829H142.18V198.449Z" fill="white"/>
<path d="M158.318 176.734C156.42 178.623 154.136 180.079 151.624 181.001C149.112 181.922 146.431 182.288 143.765 182.073C140.724 181.797 137.951 180.659 135.281 179.224C132.522 177.741 129.852 175.968 126.797 175.14C124.121 174.416 120.949 174.32 118.651 176.113C118.463 176.259 118.233 176.341 117.996 176.347C117.758 176.353 117.525 176.283 117.329 176.148L117.591 174.354C120.151 172.56 123.261 172.285 126.309 172.898C132.446 174.14 137.104 179.231 143.393 179.962C146.106 180.268 148.852 179.894 151.385 178.873C153.918 177.852 156.158 176.216 157.905 174.113L157.912 174.106L158.318 176.734Z" fill="white"/>
<path d="M300 255.439C300 255.512 299.986 255.585 299.958 255.654C299.93 255.722 299.888 255.784 299.836 255.836C299.784 255.888 299.723 255.929 299.655 255.958C299.587 255.986 299.514 256 299.44 256H0.596557C0.448093 256 0.305709 255.941 0.200729 255.835C0.0957497 255.73 0.0367737 255.587 0.0367737 255.439C0.0367737 255.29 0.0957497 255.147 0.200729 255.042C0.305709 254.937 0.448093 254.877 0.596557 254.877H299.44C299.514 254.877 299.587 254.892 299.655 254.92C299.723 254.948 299.784 254.989 299.836 255.041C299.888 255.093 299.93 255.155 299.958 255.224C299.986 255.292 300 255.365 300 255.439Z" fill="#CCCCCC"/>
<path d="M237.909 43.0603L253.993 41.6643L269.072 48.5747L277.539 166.004L244.31 150.598L230.054 154.552L237.909 43.0603Z" fill="#F2F2F2"/>
<path d="M158.526 42.9156C160.085 42.9156 161.349 41.6487 161.349 40.086C161.349 38.5232 160.085 37.2563 158.526 37.2563C156.968 37.2563 155.704 38.5232 155.704 40.086C155.704 41.6487 156.968 42.9156 158.526 42.9156Z" fill="#C3EF79"/>
<path d="M153.822 77.3426C155.381 77.3426 156.645 76.0757 156.645 74.513C156.645 72.9502 155.381 71.6833 153.822 71.6833C152.264 71.6833 151 72.9502 151 74.513C151 76.0757 152.264 77.3426 153.822 77.3426Z" fill="#C3EF79"/>
<path d="M138.769 97.6216C140.328 97.6216 141.592 96.3548 141.592 94.792C141.592 93.2293 140.328 91.9624 138.769 91.9624C137.211 91.9624 135.947 93.2293 135.947 94.792C135.947 96.3548 137.211 97.6216 138.769 97.6216Z" fill="#C3EF79"/>
<path d="M209.229 119.545V89.1695C209.23 88.5547 209.474 87.9653 209.908 87.5305C210.341 87.0958 210.929 86.8513 211.542 86.8506H234.425C235.038 86.8513 235.626 87.0958 236.059 87.5305C236.493 87.9653 236.737 88.5547 236.738 89.1695V119.545C236.737 120.16 236.493 120.749 236.059 121.184C235.626 121.619 235.038 121.863 234.425 121.864H211.542C210.929 121.863 210.341 121.619 209.908 121.184C209.474 120.749 209.23 120.16 209.229 119.545Z" fill="#E6E6E6"/>
<path d="M210.985 110.37V90.8422C210.985 90.2664 211.214 89.7143 211.62 89.3072C212.026 88.9001 212.577 88.6711 213.151 88.6704H232.816C233.39 88.671 233.941 88.9001 234.347 89.3072C234.753 89.7143 234.982 90.2664 234.982 90.8422V117.872C234.982 118.448 234.753 119 234.347 119.407C233.941 119.815 233.39 120.044 232.816 120.044H220.634C218.076 120.041 215.623 119.021 213.814 117.208C212.005 115.394 210.988 112.935 210.985 110.37Z" fill="white"/>
<path d="M214.169 96.2909C214.169 95.7283 214.393 95.1888 214.789 94.791C215.186 94.3931 215.724 94.1693 216.286 94.1687H229.927C230.489 94.1687 231.027 94.3923 231.424 94.7903C231.821 95.1883 232.044 95.7281 232.044 96.2909C232.044 96.8538 231.821 97.3936 231.424 97.7915C231.027 98.1895 230.489 98.4131 229.927 98.4131H216.286C215.724 98.4125 215.186 98.1887 214.789 97.7909C214.393 97.393 214.169 96.8536 214.169 96.2909Z" fill="#E6E6E6"/>
<path d="M214.169 102.893C214.169 102.331 214.393 101.791 214.789 101.394C215.186 100.996 215.724 100.772 216.286 100.771H229.927C230.489 100.771 231.027 100.995 231.424 101.393C231.821 101.791 232.044 102.331 232.044 102.893C232.044 103.456 231.821 103.996 231.424 104.394C231.027 104.792 230.489 105.016 229.927 105.016H216.286C215.724 105.015 215.186 104.791 214.789 104.393C214.393 103.996 214.169 103.456 214.169 102.893Z" fill="#E6E6E6"/>
<path d="M214.169 109.496C214.169 108.933 214.393 108.394 214.789 107.996C215.186 107.598 215.724 107.374 216.286 107.374H229.927C230.489 107.374 231.027 107.597 231.424 107.995C231.821 108.393 232.044 108.933 232.044 109.496C232.044 110.059 231.821 110.598 231.424 110.996C231.027 111.394 230.489 111.618 229.927 111.618H216.286C215.724 111.617 215.186 111.394 214.789 110.996C214.393 110.598 214.169 110.058 214.169 109.496Z" fill="#E6E6E6"/>
<path d="M227.87 124.786C228.514 124.519 229.092 124.114 229.563 123.599C230.034 123.084 230.386 122.472 230.596 121.805C230.805 121.139 230.866 120.435 230.775 119.742C230.683 119.05 230.441 118.386 230.066 117.797L246.657 102.687L252.478 80.1151L242.148 79.2534L238.991 96.9659L223.17 116.489C222.225 117.186 221.568 118.207 221.324 119.357C221.08 120.507 221.265 121.708 221.844 122.73C222.423 123.753 223.357 124.527 224.468 124.906C225.578 125.285 226.789 125.242 227.87 124.786V124.786Z" fill="#FFB6B6"/>
<path d="M254.07 59.7305C254.07 59.7305 256.587 59.7679 255.453 64.994C254.545 69.178 251.101 92.7228 248.352 97.9901C248.981 98.5346 249.412 99.2734 249.576 100.09C249.74 100.907 249.628 101.755 249.259 102.502L237.769 98.0326C236.767 95.4194 238.447 94.6071 239.518 94.3727L239.308 86.1757L240.955 65.2817L252.25 59.6711L254.07 59.7305Z" fill="#F2F2F2"/>
<path d="M257.454 21.0505C256.918 24.9695 254.852 28.5149 251.71 30.9077C248.568 33.3005 244.607 34.3449 240.697 33.8114C236.788 33.278 233.249 31.2103 230.86 28.0628C228.47 24.9152 227.424 20.9452 227.952 17.0251L227.981 16.8133C228.598 12.9458 230.706 9.47646 233.852 7.15355C236.997 4.83063 240.927 3.84034 244.794 4.39631C248.661 4.95227 252.155 7.00993 254.523 10.1254C256.89 13.2409 257.941 17.1645 257.449 21.0499L257.454 21.0505Z" fill="#FFB8B8"/>
<path d="M253.665 28.7378C254.429 27.1809 255.215 25.5094 255 23.7875C254.785 22.0657 253.101 20.4198 251.447 20.9316C250.458 21.2376 249.71 22.2167 248.676 22.2668C247.254 22.3357 246.438 20.7036 245.996 19.3466L244.192 13.8198C242.461 15.1728 240.452 16.1258 238.311 16.611C236.17 17.0961 233.948 17.1013 231.804 16.6263C230.13 16.2425 228.438 15.4943 227.456 14.0817C226.474 12.6692 226.48 10.4781 227.827 9.40992C228.488 8.88618 229.367 8.68719 229.998 8.12832C230.39 7.78163 230.659 7.31777 230.768 6.80539C230.876 6.293 230.816 5.75931 230.599 5.28329C230.381 4.80728 230.016 4.41423 229.558 4.16231C229.1 3.91039 228.573 3.81298 228.056 3.8845L232.596 3.31558L231.243 0.862603C232.218 1.63298 233.575 1.73659 234.796 1.51607C236.018 1.29556 237.168 0.791307 238.363 0.45503C244.1 -1.15934 250.768 1.64759 253.635 6.88429C254.753 6.51025 255.957 6.48539 257.089 6.81301C258.22 7.14062 259.226 7.80525 259.972 8.71883C261.188 10.2655 261.518 12.3294 261.566 14.2978C261.654 18.179 260.81 22.0246 259.104 25.5101C258.615 26.6172 257.913 27.6164 257.037 28.4503C256.596 28.8638 256.07 29.1755 255.497 29.3636C254.923 29.5518 254.315 29.6117 253.715 29.5394" fill="#2F2E41"/>
</svg>
