<svg width="120" height="120" viewBox="0 0 120 120" fill="none" xmlns="http://www.w3.org/2000/svg">
<circle cx="60" cy="60" r="60" fill="#FBFFF2"/>
<path fill-rule="evenodd" clip-rule="evenodd" d="M41.52 89.722C46.882 93.068 53.217 95 60 95C66.769 95 73.0935 93.075 78.452 89.7395L82.792 95.2765C76.226 99.529 68.4 102 60 102C51.5895 102 43.753 99.522 37.18 95.259L41.52 89.722V89.722ZM63.9375 86.25L61.8585 87.6185C61.589 87.86 61.1935 88 60.784 88H59.2195C58.8065 88 58.411 87.86 58.1415 87.6185L56.0625 86.25H63.9375V86.25ZM102 84.5H81C81 80.6325 84.1325 77.5 88 77.5H95C96.855 77.5 98.6365 78.2385 99.949 79.551C101.261 80.8635 102 82.6415 102 84.5ZM39 84.5H18C18 80.6325 21.1325 77.5 25 77.5H32C33.855 77.5 35.6365 78.2385 36.949 79.551C38.2615 80.8635 39 82.6415 39 84.5ZM64.011 82.75C64.494 82.75 64.886 83.142 64.886 83.625C64.886 84.108 64.494 84.5 64.011 84.5H56.0345C55.5515 84.5 55.1595 84.108 55.1595 83.625C55.1595 83.142 55.5515 82.75 56.0345 82.75H64.011ZM64.8755 81C64.8755 73.993 70.5 71.095 70.5 64.851C70.5 58.341 65.2465 54.75 59.9965 54.75C54.7465 54.75 49.5 58.334 49.5 64.851C49.5 71.095 55.1245 74.0875 55.1245 81H64.8755V81ZM91.5 60C95.847 60 99.375 63.528 99.375 67.875C99.375 72.222 95.847 75.75 91.5 75.75C87.153 75.75 83.625 72.222 83.625 67.875C83.625 63.528 87.153 60 91.5 60ZM28.5 60C32.847 60 36.375 63.528 36.375 67.875C36.375 72.222 32.847 75.75 28.5 75.75C24.153 75.75 20.625 72.222 20.625 67.875C20.625 63.528 24.153 60 28.5 60ZM73.545 68.3475L78.2665 70.4895L76.821 73.678L72.278 71.62C72.803 70.57 73.2405 69.492 73.545 68.3475V68.3475ZM46.4585 68.3475C46.763 69.5095 47.1865 70.556 47.7185 71.62L43.1825 73.678L41.7335 70.4895L46.4585 68.3475ZM79.25 61.75V65.25H73.9965C74.0315 64.0775 73.9265 62.898 73.671 61.75H79.25ZM46.329 61.75C46.077 62.8945 45.972 64.0705 46.007 65.2395V65.25H40.75V61.75H46.329ZM70.577 55.751L74.924 52.664L76.9505 55.52L72.5685 58.628C72.0575 57.6095 71.396 56.647 70.577 55.751V55.751ZM49.423 55.7475C48.618 56.6295 47.96 57.585 47.4315 58.628L43.053 55.52L45.076 52.664L49.423 55.7475V55.7475ZM64.9455 52.0865L67.266 47.379L70.4055 48.9295L68.0815 53.637C67.1085 52.993 66.0515 52.475 64.9455 52.0865ZM55.0545 52.083C53.952 52.468 52.8915 52.986 51.915 53.63L49.5945 48.9295L52.734 47.379L55.0545 52.083ZM46 20.394V27.9155C35.717 32.413 28.0065 41.7125 25.707 52.9685L18.588 52.958C21.15 37.81 31.8355 25.406 46 20.394ZM74 20.394C88.1645 25.406 98.85 37.81 101.412 52.958L94.293 52.9685C91.9935 41.7125 84.283 32.413 74 27.9155V20.394V20.394ZM61.75 51.355C60.581 51.2185 59.461 51.2115 58.25 51.3515V46H61.75V51.355ZM70.5 42.5H49.5C49.5 38.6325 52.6325 35.5 56.5 35.5H63.5C65.355 35.5 67.1365 36.2385 68.449 37.551C69.7615 38.8635 70.5 40.645 70.5 42.5ZM60 18C64.347 18 67.875 21.528 67.875 25.875C67.875 30.222 64.347 33.75 60 33.75C55.653 33.75 52.125 30.222 52.125 25.875C52.125 21.528 55.653 18 60 18Z" fill="#81C214"/>
</svg>
