<svg width="120" height="120" viewBox="0 0 120 120" fill="none" xmlns="http://www.w3.org/2000/svg">
<circle cx="60" cy="60" r="60" fill="#FBFFF2"/>
<g clip-path="url(#clip0_261_680)">
<path fill-rule="evenodd" clip-rule="evenodd" d="M34.7335 102H34.73C32.6195 102 30.8905 100.338 30.7995 98.2235C30.348 87.3035 29.0775 56.3985 29.0775 56.3985L23.0715 67.2695C22.4205 68.456 20.996 68.9705 19.736 68.484L19.7325 68.4805C18.6685 68.0675 18 67.056 18 65.9605L18.1015 65.2255L23.908 44.7295C24.4785 42.7205 26.3125 41.3345 28.402 41.3345H91.598C93.6875 41.3345 95.5215 42.7205 96.092 44.7295L101.898 65.2255L102 65.9605C102 67.056 101.331 68.0675 100.267 68.4805L100.264 68.484C99.004 68.9705 97.5795 68.456 96.9285 67.2695L90.9225 56.3985C90.9225 56.3985 89.652 87.3035 89.2005 98.2235C89.1095 100.338 87.3805 102 85.27 102H85.2665C83.198 102 81.504 100.393 81.3465 98.3355C80.9895 93.796 80.0375 82.9355 79.7505 78.6375C79.6315 76.8525 78.326 75.8025 76.9085 75.8025C75.638 75.8025 74.21 76.8525 74.0945 78.6375C73.804 82.9355 72.852 93.796 72.4985 98.3355C72.3375 100.393 70.6435 102 68.5785 102H68.5715C66.4645 102 64.732 100.338 64.6445 98.2235C64.1895 87.3035 62.3905 53 62.3905 53H57.6725C57.6725 53 55.8105 87.3035 55.3555 98.2235C55.268 100.338 53.5355 102 51.4285 102H51.4215C49.3565 102 47.6625 100.393 47.5015 98.3355C47.148 93.796 46.196 82.9355 45.9055 78.6375C45.79 76.8525 44.362 75.8025 43.0915 75.8025C41.674 75.8025 40.3685 76.8525 40.2495 78.6375C39.9625 82.9355 39.0105 93.796 38.6535 98.3355C38.496 100.393 36.802 102 34.7335 102ZM43.0775 18C48.8735 18 53.5775 22.704 53.5775 28.5C53.5775 34.296 48.8735 39 43.0775 39C37.285 39 32.5775 34.296 32.5775 28.5C32.5775 22.704 37.285 18 43.0775 18ZM76.9225 18C71.1265 18 66.4225 22.704 66.4225 28.5C66.4225 34.296 71.1265 39 76.9225 39C82.715 39 87.4225 34.296 87.4225 28.5C87.4225 22.704 82.715 18 76.9225 18Z" fill="#81C214"/>
</g>
<defs>
<clipPath id="clip0_261_680">
<rect width="84" height="84" fill="white" transform="translate(18 18)"/>
</clipPath>
</defs>
</svg>
