<svg width="55" height="55" viewBox="0 0 55 55" fill="none" xmlns="http://www.w3.org/2000/svg">
<g clip-path="url(#clip0_100_313)">
<path d="M27.5001 32.0833C32.5555 32.0833 36.6667 36.1946 36.6667 41.25C36.6667 46.3054 32.5555 50.4167 27.5001 50.4167C22.4447 50.4167 18.3334 46.3054 18.3334 41.25C18.3334 36.1946 22.4447 32.0833 27.5001 32.0833ZM27.5001 27.5C19.9055 27.5 13.7501 33.6577 13.7501 41.25C13.7501 48.8423 19.9055 55 27.5001 55C35.0947 55 41.2501 48.8423 41.2501 41.25C41.2501 33.6577 35.0947 27.5 27.5001 27.5ZM30.3326 42.2858L33.2292 39.5038L29.2509 38.956L27.5001 35.3421L25.7492 38.956L21.7709 39.5038L24.6676 42.2858L23.9617 46.239L27.5001 44.346L31.0384 46.2412L30.3326 42.2858ZM33.4676 21.0696L45.8334 6.875L41.2501 0H13.7501L9.16675 6.875L22.9167 22.9167H31.9872L18.3334 6.875H36.6667L28.9278 15.7415L33.4676 21.0696Z" fill="#81C214"/>
</g>
<defs>
<clipPath id="clip0_100_313">
<rect width="55" height="55" fill="white"/>
</clipPath>
</defs>
</svg>
