<svg width="150" height="150" viewBox="0 0 150 150" fill="none" xmlns="http://www.w3.org/2000/svg">
<path fill-rule="evenodd" clip-rule="evenodd" d="M75.0661 29.9011C92.2805 29.9011 107.576 38.1227 117.247 50.8498C108.397 41.3457 95.6383 35.3783 81.4564 35.3783C54.7397 35.3783 33.0735 56.5538 33.0735 82.6657C33.0735 107.312 52.3774 127.557 77.0107 129.752C76.7734 131.795 76.4033 133.81 75.8467 135.789C75.587 135.793 75.3269 135.795 75.0661 135.795C45.8291 135.795 22.1191 112.085 22.1191 82.848C22.1191 53.6107 45.8291 29.9011 75.0661 29.9011ZM81.1521 129.949C81.2539 129.95 81.3546 129.953 81.4564 129.953C96.4194 129.953 109.796 123.31 118.672 112.879C109.789 125.751 95.3565 134.5 78.8325 135.662C79.6922 133.808 80.4624 131.887 81.1521 129.949Z" fill="#006FB8"/>
<path fill-rule="evenodd" clip-rule="evenodd" d="M82.9191 128.306C82.4464 128.306 81.9753 128.299 81.5063 128.285C82.1916 126.664 82.6055 125.006 82.8484 123.322C102.978 120.76 118.529 103.933 118.529 83.5616C118.529 80.535 118.185 77.5866 117.534 74.7517L121.273 60.06C125.425 66.8628 127.818 74.8557 127.818 83.407C127.818 108.2 107.712 128.306 82.9191 128.306ZM76.8907 127.905C64.7821 126.279 54.202 119.824 47.1492 110.542C54.6197 118.565 65.3734 123.614 77.3334 123.661C77.403 125.075 77.2556 126.49 76.8907 127.905ZM107.422 56.1312C99.9363 48.3344 89.3001 43.462 77.4999 43.462C64.8109 43.462 53.4677 49.0952 45.9412 57.9407C54.0407 46.203 67.5819 38.5073 82.9191 38.5073C96.0527 38.5073 107.87 44.1506 116.082 53.1424L107.422 56.1312Z" fill="#81C214"/>
<path fill-rule="evenodd" clip-rule="evenodd" d="M75.6911 140.088C90.6764 112.183 82.6758 79.6492 48.4931 65.2932C41.6336 91.2405 56.3685 106.838 70.3777 115.44C59.7669 101.497 52.3753 91.9693 54.2735 77.4755C75.6357 93.4417 83.265 114.313 75.6911 140.088Z" fill="#81C214"/>
<path fill-rule="evenodd" clip-rule="evenodd" d="M77.6184 87.0359C83.3512 70.7952 97.4713 57.9542 119.661 53.5949C121.151 80.7492 103.334 93.2076 87.6689 98.8723C101.055 87.211 110.342 79.2709 111.429 64.4995C97.5473 71.004 87.7307 79.9816 82.2397 91.4846L77.6184 87.0359Z" fill="#006FB8"/>
<path fill-rule="evenodd" clip-rule="evenodd" d="M73.7593 49.9878C79.3581 49.9878 83.8989 54.5282 83.8989 60.1274C83.8989 65.7266 79.3581 70.267 73.7593 70.267C68.1601 70.267 63.6197 65.7266 63.6197 60.1274C63.6197 54.5282 68.1601 49.9878 73.7593 49.9878Z" fill="#81C214"/>
<path d="M0 83.869L0.042667 82.6512L0.0853311 81.4244L9.35704 81.7481C10.4124 81.7848 11.1815 82.0895 11.6695 82.6583C12.1572 83.2306 12.3814 84.0891 12.3413 85.2332C12.2983 86.472 11.9783 87.3402 11.3821 87.8391C10.7833 88.3384 9.80427 88.5517 8.43975 88.4809L8.0771 88.4678L8.16393 85.9791L8.52658 85.9918C9.24589 86.0285 9.74926 85.9843 10.0401 85.8616C10.3305 85.7418 10.4805 85.5075 10.4929 85.1598C10.5034 84.8559 10.4053 84.6224 10.201 84.4585C9.99739 84.2953 9.68751 84.2074 9.27171 84.1928L0 83.869ZM12.064 78.9109L0.61789 73.8664L0.896335 72.4327L1.17665 70.9899L13.677 70.6123L13.448 71.7912L13.2171 72.9787L10.5359 72.9476L10.0303 75.5487L12.5243 76.5446L12.2949 77.7231L12.064 78.9109ZM3.14035 72.8447L8.31176 74.8776L8.69312 72.9169L3.14072 72.8417L3.14035 72.8447ZM15.0928 65.8866L14.7601 66.8518L14.4263 67.8226L2.89222 63.8511L3.48878 62.1186L4.08795 60.3776L14.5094 61.7347L4.77508 58.3825L5.10742 57.4173L5.44162 56.4461L16.9757 60.4181L16.3818 62.1426L15.7856 63.8746L5.27471 62.5056L15.0928 65.8866ZM18.247 57.579L7.68264 51.4798L8.3054 50.4012L9.53294 48.2751C10.1954 47.1276 10.9076 46.4487 11.6688 46.2339C12.4308 46.0232 13.3728 46.2399 14.497 46.8888C15.7695 47.6239 16.4824 48.3656 16.6396 49.1141C16.7975 49.863 16.4633 50.948 15.6419 52.3713L15.2874 52.9843L19.497 55.4143L18.8739 56.4929L18.247 57.579ZM13.701 52.0681L14.055 51.4551C14.3885 50.8772 14.5056 50.427 14.4031 50.1089C14.3002 49.7908 13.9244 49.4446 13.2755 49.07C12.6725 48.7216 12.2017 48.5857 11.8657 48.6613C11.5292 48.7362 11.1995 49.0531 10.8735 49.6183L10.5191 50.2313L13.701 52.0681ZM23.3458 48.8593L13.8653 41.1826L14.6493 40.2148L16.1718 38.3346C16.9966 37.3162 17.771 36.7436 18.5 36.6126C19.2272 36.4835 20.0363 36.7784 20.9237 37.497C21.9263 38.3088 22.4244 39.0767 22.4203 39.7986C22.4166 40.1602 22.2788 40.6067 22.0079 41.1426L22.0932 41.0374C22.5225 40.5075 23.0195 40.25 23.585 40.2597C24.1527 40.2713 24.7467 40.5509 25.3649 41.1048C25.7205 41.4154 26.0999 41.7302 26.503 42.049C26.9229 42.3739 27.2463 42.6126 27.4738 42.7672C27.6995 42.9195 27.8806 43.024 28.0184 43.0749L27.2343 44.0427L26.451 45.0101C26.3215 44.9588 26.1493 44.8533 25.927 44.6961C25.7047 44.5389 25.3851 44.2915 24.9633 43.9498L23.8144 43.0195C23.3473 42.6261 22.9398 42.4442 22.5928 42.4746C22.2455 42.5045 21.8836 42.7549 21.5068 43.2201L21.0498 43.784L24.9184 46.9169L24.1351 47.8847L23.3458 48.8593ZM19.5981 42.6085L20.0326 42.0718C20.4394 41.57 20.6164 41.1591 20.5663 40.8413C20.5161 40.5232 20.2156 40.1396 19.6583 39.6882C19.1404 39.2687 18.7122 39.0703 18.381 39.0947C18.0502 39.119 17.6886 39.3731 17.2968 39.8567L16.8623 40.3933L19.5981 42.6085ZM29.5951 41.412L23.2994 30.6029L24.3679 29.607L25.4428 28.6044L35.7777 35.6463L34.8994 36.4652L34.0142 37.2904L31.8634 35.6894L29.9255 37.4966L31.3578 39.768L30.4798 40.5872L29.5951 41.412ZM25.9409 31.259L28.9297 35.9439L30.3907 34.5816L25.9431 31.2567L25.9409 31.259ZM42.0124 31.3009L36.4746 20.4319L37.5842 19.8664L39.7714 18.7518C40.9518 18.1504 41.9192 17.9689 42.6748 18.2032C43.4286 18.4416 44.1 19.1362 44.6898 20.293C45.3567 21.6022 45.5509 22.613 45.2747 23.3263C44.9993 24.0396 44.1284 24.7683 42.664 25.5142L42.033 25.8357L44.2396 30.1662L43.1299 30.7317L42.0124 31.3009ZM41.2014 24.2032L41.8324 23.8817C42.4263 23.5789 42.7695 23.2649 42.8571 22.9423C42.9443 22.6197 42.8178 22.1242 42.4776 21.4566C42.1613 20.8361 41.8406 20.4663 41.5176 20.3462C41.1946 20.2257 40.7455 20.3121 40.164 20.6085L39.5333 20.9296L41.2014 24.2032ZM51.2493 26.6437L47.4798 15.0419L48.664 14.6575L49.8567 14.2698L51.4143 19.0632L53.6733 18.3293L52.1161 13.5359L53.3002 13.1512L54.4929 12.7638L58.2624 24.3649L57.0783 24.7496L55.8855 25.1377L54.234 20.055L51.975 20.7889L53.6262 25.8712L52.4424 26.2563L51.2493 26.6437ZM61.021 23.5363L61.6284 11.0423L63.0667 10.7885L64.5139 10.5337L69.3462 22.0681L68.164 22.2766L66.972 22.4869L66.0405 19.9727L63.4312 20.4326L63.3953 23.1175L62.2122 23.326L61.021 23.5363ZM63.4862 13.031L63.4413 18.5879L65.4084 18.241L63.4892 13.0303L63.4862 13.031ZM71.9813 22.0842L72.1943 9.8877L73.4391 9.90941L75.8582 9.95132C77.1685 9.97415 78.0966 10.2328 78.6486 10.726C79.1977 11.2197 79.4638 12.0389 79.4439 13.1807C79.4215 14.47 79.1228 15.3357 78.5517 15.7769C78.2643 15.9966 77.8279 16.1628 77.2388 16.2795L77.3739 16.2818C78.0555 16.2938 78.5648 16.5273 78.9054 16.9786C79.2456 17.433 79.3908 18.0733 79.335 18.9012C79.3092 19.3731 79.2946 19.8656 79.2916 20.3795C79.2942 20.9105 79.3051 21.3117 79.3238 21.5868C79.3425 21.8585 79.3717 22.0658 79.4162 22.2051L78.1711 22.1834L76.926 22.1617C76.887 22.028 76.8642 21.8275 76.8511 21.5557C76.8384 21.2837 76.8365 20.8791 76.8459 20.3368L76.8717 18.8581C76.8941 18.2481 76.7864 17.8151 76.5491 17.5602C76.3114 17.305 75.8915 17.1736 75.2931 17.1632L74.5671 17.1508L74.4802 22.128L73.2355 22.1063L71.9813 22.0842ZM74.6 15.2829L75.2901 15.2953C75.9361 15.3065 76.3691 15.1931 76.5888 14.9577C76.8084 14.723 76.9256 14.2492 76.9379 13.5325C76.9499 12.8656 76.8425 12.4064 76.6198 12.1605C76.3968 11.9146 75.9739 11.7863 75.3515 11.7754L74.661 11.7631L74.6 15.2829ZM84.0996 22.7829L83.0944 22.6055L82.0831 22.4274L84.2014 10.4143L85.9215 10.7174L87.6479 11.0221L87.9503 20.5554L87.9413 20.5539L91.475 11.6965L93.1838 11.9981L94.9043 12.3012L92.7856 24.3144L91.78 24.137L90.7688 23.9588L92.548 13.8694L92.5536 13.8705L88.6651 23.5879L87.4383 23.3716L86.2126 23.1553L85.8923 12.6508L85.8867 12.6497L84.0996 22.7829ZM95.3863 25.5063L102.342 15.1096L103.706 15.6332L105.078 16.1598L103.279 28.5359L102.158 28.1055L101.028 27.6718L101.524 25.037L99.0506 24.0876L97.6371 26.3701L96.5158 25.9397L95.3863 25.5063ZM102.91 17.7713L100.01 22.5116L101.874 23.2272L102.913 17.7724L102.91 17.7713ZM114.143 30.454L113.95 30.7616C113.212 31.9876 112.447 32.7103 111.657 32.9334C110.865 33.1549 109.91 32.9169 108.791 32.2178C107.603 31.4757 106.942 30.6725 106.805 29.8072C106.668 28.9461 107.027 27.8308 107.88 26.467L109.871 23.2792C110.73 21.9049 111.578 21.0883 112.412 20.8334C113.25 20.5782 114.261 20.82 115.45 21.5625C116.481 22.2069 117.082 22.948 117.254 23.7825C117.417 24.5629 117.196 25.4341 116.589 26.3941L116.465 26.5917L116.273 26.8997L114.168 25.5846L114.361 25.2769C114.707 24.7455 114.889 24.2983 114.907 23.9408C114.924 23.5789 114.782 23.3061 114.479 23.1167C114.084 22.8697 113.703 22.8443 113.334 23.0382C112.968 23.2343 112.57 23.6774 112.138 24.3682L110.145 27.5587C109.583 28.4569 109.274 29.134 109.217 29.5887C109.159 30.0434 109.342 30.4012 109.762 30.6639C110.088 30.8671 110.425 30.8686 110.772 30.6688C111.118 30.4671 111.477 30.0584 111.846 29.4465L112.038 29.1388L114.143 30.454ZM114.05 35.7564L121.892 26.4117L126.561 30.3304L125.979 31.0243L125.395 31.7208L122.639 29.4083L120.566 31.8791L123.229 34.1134L122.647 34.8072L122.063 35.5034L119.4 33.2691L117.131 35.9727L119.939 38.3286L119.356 39.0224L118.772 39.7186L114.05 35.7564ZM128.232 45.2889C127.323 46.079 126.437 46.4352 125.574 46.3563C124.712 46.2769 123.869 45.7665 123.05 44.8241C122.229 43.8799 121.841 42.9742 121.882 42.1093C121.924 41.2444 122.4 40.4154 123.309 39.6257L129.932 33.8686L130.743 34.8016L131.554 35.7346L124.807 41.6003C124.35 41.9974 124.093 42.3454 124.035 42.6426C123.978 42.942 124.104 43.2706 124.42 43.634C124.733 43.9944 125.041 44.1643 125.346 44.1504C125.648 44.134 126.029 43.9281 126.485 43.5311L133.233 37.6654L134.044 38.5984L134.855 39.5318L128.232 45.2889ZM128.617 52.0782L137.61 46.8862L136.295 44.6093L137.082 44.1549L137.867 43.7021L141.741 50.4124L140.956 50.8656L140.169 51.32L138.859 49.0509L129.867 54.2425L129.244 53.1639L128.617 52.0782ZM132.149 58.808L143.205 53.6527L143.731 54.7811L144.261 55.9177L133.206 61.073L132.679 59.9446L132.149 58.808ZM140.372 69.9293L140.023 70.0292C138.654 70.4465 137.603 70.472 136.866 70.1089C136.129 69.7433 135.579 68.9278 135.215 67.6598C134.829 66.3129 134.875 65.2743 135.352 64.5389C135.826 63.8073 136.84 63.219 138.385 62.7758L141.999 61.7395C143.556 61.293 144.733 61.2534 145.523 61.622C146.317 61.9933 146.907 62.8496 147.293 64.1969C147.628 65.3653 147.579 66.3189 147.148 67.0531C146.747 67.7421 146 68.2422 144.907 68.5494L144.682 68.6138L144.333 68.7137L143.649 66.3282L143.999 66.2283C144.611 66.0648 145.045 65.8541 145.298 65.6007C145.553 65.3436 145.63 65.0453 145.531 64.7017C145.403 64.2538 145.137 63.9802 144.733 63.8776C144.33 63.7781 143.738 63.841 142.954 64.0655L139.338 65.1026C138.32 65.3945 137.637 65.6912 137.291 65.9907C136.944 66.2893 136.84 66.6782 136.977 67.1546C137.082 67.5236 137.331 67.75 137.724 67.8338C138.115 67.9151 138.656 67.8522 139.339 67.6441L139.688 67.5438L140.372 69.9293ZM136.839 73.4023L149.304 74.4458L149.508 75.8919L149.712 77.3473L138.016 81.774L137.849 80.585L137.68 79.3866L140.226 78.5434L139.857 75.9196L137.175 75.7901L137.008 74.6003L136.839 73.4023ZM147.252 76.2332L141.7 75.994L141.978 77.9723L147.252 76.2362L147.252 76.2332ZM137.754 84.5599L149.951 84.7732L149.929 86.018L149.907 87.2717L139.525 87.091L139.47 90.2624L138.564 90.2467L137.655 90.2306L137.754 84.5599Z" fill="#20026F"/>
</svg>
